<svg xmlns="http://www.w3.org/2000/svg" width="752.861" height="867.685"><path fill="#FFC" d="M406.305 99.308l-.384.385-2.694 6.144 3.839 3.455-14.203 9.985 4.224 9.98-6.144 8.447-2.303 3.461-2.689-4.992-4.608 3.072 1.152 7.301-9.599 1.91-2.689 2.303.384 5.765 5.372 4.229.767 4.99 11.141 4.986 5.373 5.764 4.227-.773-2.304 2.693 1.538 8.063 4.607 5.371 11.519.773-.001 1.922 8.835-.385.767-13.439 2.303-7.297 6.144 1.152 4.223.77 8.834 9.982 4.991-3.072 1.916-9.217 4.228.385 1.92-6.529 4.988-3.455-1.148-5.76 4.608-5.764 11.52 9.221 5.376-.772 5.373 2.307 5.768-1.922.761-9.6 4.611-2.302 2.687 4.226 7.68 3.836 15.728-.388 2.688-9.977-3.071-4.994 8.447-3.84-3.456-4.99-11.52-3.455-7.667 3.84-.384-15.744-3.453-8.067 1.922.771 9.966-10.367-5.374-3.07-1.154-7.301-4.206-11.904 3.435-5.375 4.229 1.918 5.371-9.217-2.296-10.367-7.296 3.84-8.821-1.533-6.144-4.994-9.568-3.073 1.888 1.922-3.072 4.99-5.759 1.155-3.836-5.379-5.763 4.609-8.063-3.84-1.539-.384-4.223 6.144-3.841 1.537-3.071 15.355h-2.301l-2.303 4.612h-2.309l-1.536.768-7.301 1.921-22.267-1.921-.768 6.144-3.424 6.139 6.876 4.228 2.303 6.527-4.607 2.301z"/><path fill="none" stroke="#000" stroke-width=".425" stroke-miterlimit="3.864" d="M406.305 99.308l-.384.385-2.694 6.144 3.839 3.455-14.203 9.985 4.224 9.98-6.144 8.447-2.303 3.461-2.689-4.992-4.608 3.072 1.152 7.301-9.599 1.91-2.689 2.303.384 5.765 5.372 4.229.767 4.99 11.141 4.986 5.373 5.764 4.227-.773-2.304 2.693 1.538 8.063 4.607 5.371 11.519.773-.001 1.922 8.835-.385.767-13.439 2.303-7.297 6.144 1.152 4.223.77 8.834 9.982 4.991-3.072 1.916-9.217 4.228.385 1.92-6.529 4.988-3.455-1.148-5.76 4.608-5.764 11.52 9.221 5.376-.772 5.373 2.307 5.768-1.922.761-9.6 4.611-2.302 2.687 4.226 7.68 3.836 15.728-.388 2.688-9.977-3.071-4.994 8.447-3.84-3.456-4.99-11.52-3.455-7.667 3.84-.384-15.744-3.453-8.067 1.922.771 9.966-10.367-5.374-3.07-1.154-7.301-4.206-11.904 3.435-5.375 4.229 1.918 5.371-9.217-2.296-10.367-7.296 3.84-8.821-1.533-6.144-4.994-9.568-3.073 1.888 1.922-3.072 4.99-5.759 1.155-3.836-5.379-5.763 4.609-8.063-3.84-1.539-.384-4.223 6.144-3.841 1.537-3.071 15.355h-2.301l-2.303 4.612h-2.309l-1.536.768-7.301 1.921-22.267-1.921-.768 6.144-3.424 6.139 6.876 4.228 2.303 6.527-4.607 2.301z"/><path fill="#FFC" d="M405.952 99.693l-4.262-1.919-1.531 2.682-4.223 9.221h-6.529l-6.912-4.609-4.224 3.074-4.227-1.541 1.542 3.839-6.527 9.217 4.604 5.764-6.528 4.609-5.376-.767-1.92 7.68-3.07 3.07-8.069 7.674-8.445-.768-3.454-5.371 8.445-6.527-.767-10.372-1.919-2.3 6.911-7.682 3.461 7.297 8.445-7.678-.003-6.912-10.367.768-6.528 2.301-2.302-2.684.766-8.451-4.608.385-3.456 3.072-4.226-1.536-1.902 1.151-15.379-7.678 1.153-4.609-3.454-3.072-1.92-11.903 3.84-4.609-1.152-9.217-23.424 4.61-.767 1.535-1.153.765.769 4.611 2.303-.767 3.84 18.047-9.599 9.6 1.535 6.527-4.224 3.457-4.228.766-2.301 4.99 9.601 6.531-.768 12.672 6.528 1.154 4.992-6.914 4.993 1.916 23.423-3.072-.768-3.834 2.301-.385 4.229 1.535-.769 6.527 6.527 9.985-6.144 11.9-3.456.385-1.536 1.541-5.376 1.533-.386 3.457-3.456 1.538-9.599-1.923-1.919 3.069-4.227-6.906-3.455 6.525-7.678-5.375 1.532-3.455 2.689-1.147 5.373-2.693-.766-7.295-.769-3.457-5.371 3.451-9.216-3.84-.767-.38-5.761-.383-.768 1.92h-11.135l-.383 1.15v2.303l-7.682 5.375-.384 3.457 2.692 1.533 6.14-5.375-1.92 11.908-5.759 6.145-3.456 3.07-.769 5.768 7.301 4.223.764 5.755 13.439 10.368 1.152-2.303 3.456 1.152 3.073 1.533-1.153 2.69 6.907 3.455 3.845 2.301 8.065.386 9.599 4.223h12.289l3.839 9.219 7.296 2.688 7.301-1.151 1.152 2.687 10.742 7.297 7.685-3.84-.384-6.144 16.128-3.84 1.536-3.072 9.983-10.368-1.151-5.761 3.073 1.535 8.063-6.144-4.99-7.678 6.528 1.918-1.538-8.063 2.304-2.693-4.227.773-5.373-5.764-11.141-4.986-.767-4.99-5.372-4.229-.384-5.765 2.689-2.303 9.599-1.91-1.152-7.301 4.608-3.072 2.689 4.992 2.303-3.461 6.144-8.447-4.224-9.98 14.203-9.985-3.839-3.455 2.694-6.144z"/><path fill="none" stroke="#000" stroke-width=".425" stroke-miterlimit="3.864" d="M405.952 99.693l-4.262-1.919-1.531 2.682-4.223 9.221h-6.529l-6.912-4.609-4.224 3.074-4.227-1.541 1.542 3.839-6.527 9.217 4.604 5.764-6.528 4.609-5.376-.767-1.92 7.68-3.07 3.07-8.069 7.674-8.445-.768-3.454-5.371 8.445-6.527-.767-10.372-1.919-2.3 6.911-7.682 3.461 7.297 8.445-7.678-.003-6.912-10.367.768-6.528 2.301-2.302-2.684.766-8.451-4.608.385-3.456 3.072-4.226-1.536-1.902 1.151-15.379-7.678 1.153-4.609-3.454-3.072-1.92-11.903 3.84-4.609-1.152-9.217-23.424 4.61-.767 1.535-1.153.765.769 4.611 2.303-.767 3.84 18.047-9.599 9.6 1.535 6.527-4.224 3.457-4.228.766-2.301 4.99 9.601 6.531-.768 12.672 6.528 1.154 4.992-6.914 4.993 1.916 23.423-3.072-.768-3.834 2.301-.385 4.229 1.535-.769 6.527 6.527 9.985-6.144 11.9-3.456.385-1.536 1.541-5.376 1.533-.386 3.457-3.456 1.538-9.599-1.923-1.919 3.069-4.227-6.906-3.455 6.525-7.678-5.375 1.532-3.455 2.689-1.147 5.373-2.693-.766-7.295-.769-3.457-5.371 3.451-9.216-3.84-.767-.38-5.761-.383-.768 1.92h-11.135l-.383 1.15v2.303l-7.682 5.375-.384 3.457 2.692 1.533 6.14-5.375-1.92 11.908-5.759 6.145-3.456 3.07-.769 5.768 7.301 4.223.764 5.755 13.439 10.368 1.152-2.303 3.456 1.152 3.073 1.533-1.153 2.69 6.907 3.455 3.845 2.301 8.065.386 9.599 4.223h12.289l3.839 9.219 7.296 2.688 7.301-1.151 1.152 2.687 10.742 7.297 7.685-3.84-.384-6.144 16.128-3.84 1.536-3.072 9.983-10.368-1.151-5.761 3.073 1.535 8.063-6.144-4.99-7.678 6.528 1.918-1.538-8.063 2.304-2.693-4.227.773-5.373-5.764-11.141-4.986-.767-4.99-5.372-4.229-.384-5.765 2.689-2.303 9.599-1.91-1.152-7.301 4.608-3.072 2.689 4.992 2.303-3.461 6.144-8.447-4.224-9.98 14.203-9.985-3.839-3.455 2.694-6.144z"/><path fill="#FFC" d="M410.561 86.253l-6.562-5.375-.768 4.613 3.84 6.901z"/><path fill="none" stroke="#000" stroke-width=".425" stroke-miterlimit="3.864" d="M410.561 86.253l-6.562-5.375-.768 4.613 3.84 6.901z"/><path fill="#FFC" d="M283.808 99.693l1.535 6.527-4.224 3.457-4.228.766-2.301 4.99 9.601 6.531-.768 12.672-2.302 4.226-.769-.386-5.761-.383-.768 1.92h-11.135l2.303-9.983-8.06-2.308-7.682-3.07.767-15.362-4.609-18.428-1.92-5.759 1.92-5.76.4-4.225 9.964-1.928 7.3 6.151 11.136 17.279z"/><path fill="none" stroke="#000" stroke-width=".425" stroke-miterlimit="3.864" d="M283.808 99.693l1.535 6.527-4.224 3.457-4.228.766-2.301 4.99 9.601 6.531-.768 12.672-2.302 4.226-.769-.386-5.761-.383-.768 1.92h-11.135l2.303-9.983-8.06-2.308-7.682-3.07.767-15.362-4.609-18.428-1.92-5.759 1.92-5.76.4-4.225 9.964-1.928 7.3 6.151 11.136 17.279z"/><path fill="#FFC" d="M281.119 138.856l9.216 3.84 5.371-3.451.769 3.457.766 7.295-5.373 2.693-2.689 1.147-1.532 3.455 7.678 5.375 3.455-6.525 4.227 6.906 1.919-3.069 9.599 1.923 3.456-1.538.386-3.457 5.376-1.533 1.536-1.541 3.456-.385 6.144-11.9-6.527-9.985.769-6.527-4.229-1.535-2.301.385.768 3.834-23.423 3.072-4.993-1.916-4.992 6.914-6.528-1.154z"/><path fill="none" stroke="#000" stroke-width=".425" stroke-miterlimit="3.864" d="M281.119 138.856l9.216 3.84 5.371-3.451.769 3.457.766 7.295-5.373 2.693-2.689 1.147-1.532 3.455 7.678 5.375 3.455-6.525 4.227 6.906 1.919-3.069 9.599 1.923 3.456-1.538.386-3.457 5.376-1.533 1.536-1.541 3.456-.385 6.144-11.9-6.527-9.985.769-6.527-4.229-1.535-2.301.385.768 3.834-23.423 3.072-4.993-1.916-4.992 6.914-6.528-1.154z"/><path fill="#FFC" d="M657.072 153.837l10.718-1.535 1.153-2.688-2.302-1.921-3.073-8.837-5.379-18.043-4.225-4.993 2.303-5.762-4.993-13.827-1.531-1.913-5.374-.383-5.375 5.761 1.538 1.54 3.833 2.298-10.366 13.055-11.136.77.768-1.153-4.221.383h-7.299l-3.453-3.455 2.301-6.145.384-10.753-1.154-5.76-5.374-3.071 3.072-7.296-2.307-1.536-6.525 2.69-3.84 11.902-11.52-3.457 1.92-1.918 1.92-1.158 3.072-3.84 7.68-14.207-1.536-4.994-9.211-13.434-1.153-1.921 3.837-5.76-.383-.768-3.456-9.599-6.148-4.223.386-3.84-11.136 7.678-6.144 8.834-3.841-14.979-8.443 3.842v8.445l-3.456 1.918-8.834-5.371 1.534-5.381 2.304-2.303.382-9.982-1.148-1.918 3.067-3.84-.376-9.603-21.891 4.605 2.302 10.762-1.92 1.918-11.518-7.297-1.522-8.455-6.144-.377-4.612 6.529-3.835-1.154-3.073-5.76-6.528 3.834-4.223 2.696-3.073-2.696-4.224 1.926-10.751 1.535 1.915 9.219-6.524 1.149 6.528 3.457 6.913-.385 5.376 1.539-7.301 3.455 3.073 5.76 6.147-.383.768-9.983 5.376 3.838 3.072 5.375v6.143l-3.456 4.226-2.303 2.686 3.456 3.072 9.599 3.073 6.144 4.994 8.821 1.533 7.296-3.84 2.296 10.367-5.371 9.217-4.229-1.918-3.435 5.375 4.206 11.904 1.154 7.301 5.374 3.07-9.966 10.367-1.922-.771 3.453 8.067.384 15.744 7.667-3.84 11.52 3.455 3.456 4.99 9.217-1.15-.767 6.144 10.366 1.918-.383-1.918 6.529-1.154 1.534 7.297 8.448 1.152 2.304-3.078 18.433 3.846 5.759 9.214 13.829-.382 16.512-1.916 14.587-3.84 3.072-1.918 13.44-2.307z"/><path fill="none" stroke="#000" stroke-width=".425" stroke-miterlimit="3.864" d="M657.072 153.837l10.718-1.535 1.153-2.688-2.302-1.921-3.073-8.837-5.379-18.043-4.225-4.993 2.303-5.762-4.993-13.827-1.531-1.913-5.374-.383-5.375 5.761 1.538 1.54 3.833 2.298-10.366 13.055-11.136.77.768-1.153-4.221.383h-7.299l-3.453-3.455 2.301-6.145.384-10.753-1.154-5.76-5.374-3.071 3.072-7.296-2.307-1.536-6.525 2.69-3.84 11.902-11.52-3.457 1.92-1.918 1.92-1.158 3.072-3.84 7.68-14.207-1.536-4.994-9.211-13.434-1.153-1.921 3.837-5.76-.383-.768-3.456-9.599-6.148-4.223.386-3.84-11.136 7.678-6.144 8.834-3.841-14.979-8.443 3.842v8.445l-3.456 1.918-8.834-5.371 1.534-5.381 2.304-2.303.382-9.982-1.148-1.918 3.067-3.84-.376-9.603-21.891 4.605 2.302 10.762-1.92 1.918-11.518-7.297-1.522-8.455-6.144-.377-4.612 6.529-3.835-1.154-3.073-5.76-6.528 3.834-4.223 2.696-3.073-2.696-4.224 1.926-10.751 1.535 1.915 9.219-6.524 1.149 6.528 3.457 6.913-.385 5.376 1.539-7.301 3.455 3.073 5.76 6.147-.383.768-9.983 5.376 3.838 3.072 5.375v6.143l-3.456 4.226-2.303 2.686 3.456 3.072 9.599 3.073 6.144 4.994 8.821 1.533 7.296-3.84 2.296 10.367-5.371 9.217-4.229-1.918-3.435 5.375 4.206 11.904 1.154 7.301 5.374 3.07-9.966 10.367-1.922-.771 3.453 8.067.384 15.744 7.667-3.84 11.52 3.455 3.456 4.99 9.217-1.15-.767 6.144 10.366 1.918-.383-1.918 6.529-1.154 1.534 7.297 8.448 1.152 2.304-3.078 18.433 3.846 5.759 9.214 13.829-.382 16.512-1.916 14.587-3.84 3.072-1.918 13.44-2.307z"/><path fill="#FFC" d="M533.007 137.708l9.217-1.15-.767 6.144 10.366 1.918-.383-1.918 6.529-1.154 1.534 7.297 8.448 1.152 2.304-3.078 18.433 3.846 5.759 9.214-2.303 9.6 2.687 5.768.384 12.287-1.92 2.689-4.224.762-4.992 9.983-13.822 4.609 1.915 6.908-4.987 12.291h-10.369l-3.457 10.369-3.839 1.535-1.536 7.295-6.912 5.371-8.065-8.826.383 17.667-3.839-1.157-8.064-9.217-6.91 4.229 1.918 6.145-3.072-1.157-4.592-9.983-4.607-1.918-11.904 16.129-1.921-2.691 3.461-5.375-3.84-12.672-7.296 1.922-5.765-4.994-1.147-2.303-7.301-1.925 6.147-3.073-1.153-1.918 3.067-4.221 12.291-3.071 2.688-3.458 3.841-3.076-8.065-5.373 1.536-11.901 4.608-6.144-1.149-2.305 5.373.385 13.056-5.375-9.982-6.912-1.921-5.766-1.153-6.908-4.224-3.457.766-9.6 4.611-2.302 2.687 4.226 7.68 3.836 15.728-.388 2.688-9.977-3.071-4.994z"/><path fill="none" stroke="#000" stroke-width=".425" stroke-miterlimit="3.864" d="M533.007 137.708l9.217-1.15-.767 6.144 10.366 1.918-.383-1.918 6.529-1.154 1.534 7.297 8.448 1.152 2.304-3.078 18.433 3.846 5.759 9.214-2.303 9.6 2.687 5.768.384 12.287-1.92 2.689-4.224.762-4.992 9.983-13.822 4.609 1.915 6.908-4.987 12.291h-10.369l-3.457 10.369-3.839 1.535-1.536 7.295-6.912 5.371-8.065-8.826.383 17.667-3.839-1.157-8.064-9.217-6.91 4.229 1.918 6.145-3.072-1.157-4.592-9.983-4.607-1.918-11.904 16.129-1.921-2.691 3.461-5.375-3.84-12.672-7.296 1.922-5.765-4.994-1.147-2.303-7.301-1.925 6.147-3.073-1.153-1.918 3.067-4.221 12.291-3.071 2.688-3.458 3.841-3.076-8.065-5.373 1.536-11.901 4.608-6.144-1.149-2.305 5.373.385 13.056-5.375-9.982-6.912-1.921-5.766-1.153-6.908-4.224-3.457.766-9.6 4.611-2.302 2.687 4.226 7.68 3.836 15.728-.388 2.688-9.977-3.071-4.994z"/><path fill="#FFC" d="M423.199 261.741l3.835-.383 3.456-3.457 3.845-3.455 12.672 3.455-.768-1.922 11.52-2.687-.382-.385-9.602-15.742-5.759-4.223-8.06-5.761-9.216-2.688-1.157-5.375-11.134-1.154-2.301 4.994-14.976-.768.379.768 11.137 9.6 4.992.767 11.135 7.301-6.911 8.826 4.607 6.527z"/><path fill="none" stroke="#000" stroke-width=".425" stroke-miterlimit="3.864" d="M423.199 261.741l3.835-.383 3.456-3.457 3.845-3.455 12.672 3.455-.768-1.922 11.52-2.687-.382-.385-9.602-15.742-5.759-4.223-8.06-5.761-9.216-2.688-1.157-5.375-11.134-1.154-2.301 4.994-14.976-.768.379.768 11.137 9.6 4.992.767 11.135 7.301-6.911 8.826 4.607 6.527z"/><path fill="#FFC" d="M423.199 261.741l3.835-.383 3.456-3.457 3.845-3.455 12.672 3.455-.768-1.922 11.52-2.688-.382-.385-9.602-15.742-5.76-4.223-8.06-5.762-9.216-2.688-1.157-5.375-11.134-1.154-2.301 4.994-14.977-.768.379.768 11.137 9.6 4.992.768 11.136 7.301-6.911 8.826 4.606 6.527 2.69 5.763zm-83.712-39.168l1.92 2.303-1.92 11.9 5.762 2.695-3.842 8.445.384.77 10.752-2.307 4.225 8.449.384 10.361-3.456.389-.384 8.066-.38 8.834 2.684-3.459 11.904 1.922 8.832-.385 4.226 1.535v3.836l6.91 1.537 10.752-.766 1.157-7.301 10.361-2.296-1.536-4.227 3.842-.383 5.76 3.836 8.448 1.156-1.92 3.834 4.991 3.845h9.217l2.689 3.07.382 1.154 4.608-3.072 8.448-5.375 1.151 3.838 11.904-3.455 14.208 1.533.005-2.301-4.224-1.537 3.451-4.229 3.451-1.529 1.161 2.301.379 3.84h3.456l4.608-9.6 11.136-.383 1.536-1.541v-8.832l6.512-1.918-4.592-9.982-4.607-1.918-11.903 16.129-1.921-2.691 3.461-5.375-3.841-12.672-7.296 1.922-5.765-4.994-1.146-2.303-7.302-1.925 6.147-3.073-1.153-1.918 3.067-4.221 12.291-3.072 2.688-3.458 3.841-3.076-8.064-5.374 1.536-11.9 4.607-6.144-1.148-2.305 5.373.385 13.056-5.375-9.982-6.912-1.921-5.766-1.152-6.908-4.225-3.457-5.763 1.922-5.373-2.307-5.376.772-11.52-9.221-4.608 5.764 1.147 5.76-4.987 3.455-1.92 6.529-4.229-.385-1.916 9.217-4.991 3.072-8.834-9.982-4.223-.77-6.144-1.152-2.304 7.297-.767 13.439-8.835.385.001-1.922-11.52-.773-4.606-5.371-6.528-1.918 4.99 7.678-8.062 6.144-3.073-1.535 1.15 5.762-9.982 10.367-1.536 3.072-16.128 3.84.384 6.144-7.685 3.84-10.745-7.293z"/><path fill="none" stroke="#000" stroke-width=".425" stroke-miterlimit="3.864" d="M423.199 261.741l3.835-.383 3.456-3.457 3.845-3.455 12.672 3.455-.768-1.922 11.52-2.688-.382-.385-9.602-15.742-5.76-4.223-8.06-5.762-9.216-2.688-1.157-5.375-11.134-1.154-2.301 4.994-14.977-.768.379.768 11.137 9.6 4.992.768 11.136 7.301-6.911 8.826 4.606 6.527 2.69 5.763zm-83.712-39.168l1.92 2.303-1.92 11.9 5.762 2.695-3.842 8.445.384.77 10.752-2.307 4.225 8.449.384 10.361-3.456.389-.384 8.066-.38 8.834 2.684-3.459 11.904 1.922 8.832-.385 4.226 1.535v3.836l6.91 1.537 10.752-.766 1.157-7.301 10.361-2.296-1.536-4.227 3.842-.383 5.76 3.836 8.448 1.156-1.92 3.834 4.991 3.845h9.217l2.689 3.07.382 1.154 4.608-3.072 8.448-5.375 1.151 3.838 11.904-3.455 14.208 1.533.005-2.301-4.224-1.537 3.451-4.229 3.451-1.529 1.161 2.301.379 3.84h3.456l4.608-9.6 11.136-.383 1.536-1.541v-8.832l6.512-1.918-4.592-9.982-4.607-1.918-11.903 16.129-1.921-2.691 3.461-5.375-3.841-12.672-7.296 1.922-5.765-4.994-1.146-2.303-7.302-1.925 6.147-3.073-1.153-1.918 3.067-4.221 12.291-3.072 2.688-3.458 3.841-3.076-8.064-5.374 1.536-11.9 4.607-6.144-1.148-2.305 5.373.385 13.056-5.375-9.982-6.912-1.921-5.766-1.152-6.908-4.225-3.457-5.763 1.922-5.373-2.307-5.376.772-11.52-9.221-4.608 5.764 1.147 5.76-4.987 3.455-1.92 6.529-4.229-.385-1.916 9.217-4.991 3.072-8.834-9.982-4.223-.77-6.144-1.152-2.304 7.297-.767 13.439-8.835.385.001-1.922-11.52-.773-4.606-5.371-6.528-1.918 4.99 7.678-8.062 6.144-3.073-1.535 1.15 5.762-9.982 10.367-1.536 3.072-16.128 3.84.384 6.144-7.685 3.84-10.745-7.293z"/><path fill="#FFC" d="M398.626 387.308l2.305.767 2.3-6.146-.382-9.6-1.542-6.523 4.226-7.688 4.992 4.611 5.76-1.916-.765-11.136 4.991-1.153 4.224 4.61 4.608.385 8.453-6.53 4.99 6.912 8.063-4.609 4.604-1.529 4.61-13.446 4.224-2.304 3.067.379 5.765-.379 3.072-3.84-3.839 2.303-2.684-8.446-3.456 1.918-5.763-2.691-1.917-6.139 6.144.383 3.835-5.377 1.152-.383h2.304l2.691-2.304-3.075-4.608-.384-.383-1.531-1.154-4.233-2.305-1.915-.767 3.071-1.918 5.761-4.994 5.759-1.151 3.84-7.295-14.208-1.537-11.904 3.455-1.151-3.838-8.449 5.375-4.608 3.073-.382-1.155-2.689-3.07h-9.217l-4.991-3.845 1.919-3.835-8.448-1.156-5.76-3.836-3.841.383 1.536 4.227-10.362 2.296-1.157 7.301-10.752.766-6.91-1.537v-3.836l-4.225-1.535-8.832.384-11.905-1.921-2.688 3.455 6.907 4.99.005.387 9.6 23.425.384 6.528-4.992 1.156-4.992-2.305-1.534 7.676 4.227 3.84-2.698 1.152 1.543 2.305 3.454 14.207 7.301 4.609 1.912 9.216 6.533-1.153 9.6 2.304 2.691 2.301v4.608l-3.077 3.841 4.987 13.057z"/><path fill="none" stroke="#000" stroke-width=".425" stroke-miterlimit="3.864" d="M398.626 387.308l2.305.767 2.3-6.146-.382-9.6-1.542-6.523 4.226-7.688 4.992 4.611 5.76-1.916-.765-11.136 4.991-1.153 4.224 4.61 4.608.385 8.453-6.53 4.99 6.912 8.063-4.609 4.604-1.529 4.61-13.446 4.224-2.304 3.067.379 5.765-.379 3.072-3.84-3.839 2.303-2.684-8.446-3.456 1.918-5.763-2.691-1.917-6.139 6.144.383 3.835-5.377 1.152-.383h2.304l2.691-2.304-3.075-4.608-.384-.383-1.531-1.154-4.233-2.305-1.915-.767 3.071-1.918 5.761-4.994 5.759-1.151 3.84-7.295-14.208-1.537-11.904 3.455-1.151-3.838-8.449 5.375-4.608 3.073-.382-1.155-2.689-3.07h-9.217l-4.991-3.845 1.919-3.835-8.448-1.156-5.76-3.836-3.841.383 1.536 4.227-10.362 2.296-1.157 7.301-10.752.766-6.91-1.537v-3.836l-4.225-1.535-8.832.384-11.905-1.921-2.688 3.455 6.907 4.99.005.387 9.6 23.425.384 6.528-4.992 1.156-4.992-2.305-1.534 7.676 4.227 3.84-2.698 1.152 1.543 2.305 3.454 14.207 7.301 4.609 1.912 9.216 6.533-1.153 9.6 2.304 2.691 2.301v4.608l-3.077 3.841 4.987 13.057z"/><path fill="#FFC" d="M481.951 280.558l4.224-1.155-.379-3.84-1.161-2.3-3.451 1.529-3.452 4.229z"/><path fill="none" stroke="#000" stroke-width=".425" stroke-miterlimit="3.864" d="M481.951 280.558l4.224-1.155-.379-3.84-1.161-2.3-3.451 1.529-3.452 4.229z"/><path fill="#FFC" d="M692.782 275.181l1.889-.768-3.456-11.521-11.52-1.534 13.056-11.906-2.304-7.295-4.223-3.455-12.288-9.217-2.305 1.536-10.367-6.528-.385-4.226-1.92-14.975 2.305-1.15-3.456-3.074 1.92-6.149 2.687 4.609 4.608-7.297-4.608-5.375-.768-3.453.381-8.445-2.3 1.151-3.841-2.688 1.154-19.584-1.154-4.221-13.44 2.307-3.072 1.918-14.587 3.84-16.512 1.916-13.829.382-2.303 9.6 2.687 5.768.384 12.287-1.92 2.689-4.224.762-4.992 9.983-13.822 4.609 1.915 6.908-4.987 12.291h-10.369l-3.457 10.369-3.839 1.535-1.536 7.295-6.912 5.371-8.065-8.826.383 17.667-3.839-1.157-8.064-9.217-6.91 4.229 1.918 6.145-3.072-1.157-6.512 1.918v8.838l8.821 8.062 18.432 2.301-2.693 4.229 1.152 7.685-1.152 3.066 16.898 7.295 1.534 7.682 4.224 2.686 9.601-3.455 3.071 5.759 12.672 1.155v4.222l9.984 6.145-.767 3.84 7.3-2.305 1.534 1.92 7.679-9.215-1.922-3.84 5.376-4.994 2.688 1.154 9.984-5.371 11.904-1.154-5.371-7.682-4.613-6.146 3.075-4.996-3.075-3.453 11.14-4.229 6.908 4.229 6.145-1.918 10.372 1.15 13.435-5.76 5.376.77v4.607l4.606.768 2.689-2.303z"/><path fill="none" stroke="#000" stroke-width=".425" stroke-miterlimit="3.864" d="M692.782 275.181l1.889-.768-3.456-11.521-11.52-1.534 13.056-11.906-2.304-7.295-4.223-3.455-12.288-9.217-2.305 1.536-10.367-6.528-.385-4.226-1.92-14.975 2.305-1.15-3.456-3.074 1.92-6.149 2.687 4.609 4.608-7.297-4.608-5.375-.768-3.453.381-8.445-2.3 1.151-3.841-2.688 1.154-19.584-1.154-4.221-13.44 2.307-3.072 1.918-14.587 3.84-16.512 1.916-13.829.382-2.303 9.6 2.687 5.768.384 12.287-1.92 2.689-4.224.762-4.992 9.983-13.822 4.609 1.915 6.908-4.987 12.291h-10.369l-3.457 10.369-3.839 1.535-1.536 7.295-6.912 5.371-8.065-8.826.383 17.667-3.839-1.157-8.064-9.217-6.91 4.229 1.918 6.145-3.072-1.157-6.512 1.918v8.838l8.821 8.062 18.432 2.301-2.693 4.229 1.152 7.685-1.152 3.066 16.898 7.295 1.534 7.682 4.224 2.686 9.601-3.455 3.071 5.759 12.672 1.155v4.222l9.984 6.145-.767 3.84 7.3-2.305 1.534 1.92 7.679-9.215-1.922-3.84 5.376-4.994 2.688 1.154 9.984-5.371 11.904-1.154-5.371-7.682-4.613-6.146 3.075-4.996-3.075-3.453 11.14-4.229 6.908 4.229 6.145-1.918 10.372 1.15 13.435-5.76 5.376.77v4.607l4.606.768 2.689-2.303z"/><path fill="#FFC" d="M442.776 353.901l-.765 6.912 4.223 12.672 13.829 6.145v1.918l7.296 2.687 2.304-2.687 8.065 1.537 1.151-6.527 4.225 3.455 2.303 7.679 4.609-6.144 8.063.769 5.76 2.303 2.688 4.994 3.453-3.457 9.584 5.76 3.838-.766 1.925.377 1.536-4.224-1.536-7.295 8.832 3.457 3.072-1.153-1.919-5.371 6.529-3.457 1.534-4.609-2.687-3.839 14.591-2.304 6.144 3.84 9.215-4.613 1.918-2.303-2.301-6.91 1.157-.768-5.765-7.292-.004-10.37-9.98-4.609v-5.375l-6.528-4.23 5.373-2.301-.376-6.905-4.229-2.691-1.534-7.682-16.898-7.295 1.152-3.066-1.152-7.685 2.693-4.229-18.432-2.301-8.821-8.062-1.536 1.535-11.136.383-4.608 9.599h-3.456l-4.224 1.155v2.298l-3.84 7.301-5.759 1.151-5.761 4.994-3.071 1.918 1.915.767 4.233 2.305 1.531 1.154.384.383 3.075 4.608-2.691 2.304h-2.304l-1.152.383-3.835 5.377-6.144-.383 1.917 6.139 5.763 2.691 3.456-1.918 2.684 8.446 3.839-2.303-3.072 3.84-5.765.379-3.067-.379-4.224 2.304-4.61 13.446-4.604 1.529z"/><path fill="none" stroke="#000" stroke-width=".425" stroke-miterlimit="3.864" d="M442.776 353.901l-.765 6.912 4.223 12.672 13.829 6.145v1.918l7.296 2.687 2.304-2.687 8.065 1.537 1.151-6.527 4.225 3.455 2.303 7.679 4.609-6.144 8.063.769 5.76 2.303 2.688 4.994 3.453-3.457 9.584 5.76 3.838-.766 1.925.377 1.536-4.224-1.536-7.295 8.832 3.457 3.072-1.153-1.919-5.371 6.529-3.457 1.534-4.609-2.687-3.839 14.591-2.304 6.144 3.84 9.215-4.613 1.918-2.303-2.301-6.91 1.157-.768-5.765-7.292-.004-10.37-9.98-4.609v-5.375l-6.528-4.23 5.373-2.301-.376-6.905-4.229-2.691-1.534-7.682-16.898-7.295 1.152-3.066-1.152-7.685 2.693-4.229-18.432-2.301-8.821-8.062-1.536 1.535-11.136.383-4.608 9.599h-3.456l-4.224 1.155v2.298l-3.84 7.301-5.759 1.151-5.761 4.994-3.071 1.918 1.915.767 4.233 2.305 1.531 1.154.384.383 3.075 4.608-2.691 2.304h-2.304l-1.152.383-3.835 5.377-6.144-.383 1.917 6.139 5.763 2.691 3.456-1.918 2.684 8.446 3.839-2.303-3.072 3.84-5.765.379-3.067-.379-4.224 2.304-4.61 13.446-4.604 1.529z"/><path fill="#FFC" d="M734.635 393.067l-1.18-11.519 1.922-1.152.385-8.063 3.07-2.687 1.535-1.153v-8.062l-5.377-1.922.772-3.072 5.759-3.073v-7.677l-1.535-1.159 1.535-4.986-7.297-6.523 7.297-2.694-2.306-11.135-6.144-5.377-.383-3.455-3.457.766-.388-1.15 2.692-3.461-8.064-3.455-2.302-5.756-4.608-.385-.767-8.832-4.226-1.537-3.073 2.687-1.152-1.15-14.208-5.377-.384-6.527-8.833 4.609-2.689 2.303-4.606-.768v-4.607l-5.376-.77-13.435 5.76-10.372-1.15-6.145 1.918-6.908-4.229-11.14 4.229 3.075 3.453-3.075 4.996 4.613 6.146 5.371 7.682-11.904 1.154-9.984 5.371-2.688-1.154-5.376 4.994 1.922 3.84-7.679 9.215-1.534-1.92-7.3 2.305.767-3.84-9.984-6.145v-4.222l-12.672-1.155-3.071-5.759-9.601 3.455.381 6.91-5.373 2.301 6.528 4.23v5.375l9.98 4.609.004 10.37 5.765 7.292-1.157.768 2.301 6.91-1.918 2.303-9.215 4.613-6.144-3.84-14.591 2.304 2.687 3.839-1.534 4.609-6.529 3.457 1.919 5.371 7.682 1.153 14.209-2.301-.386 1.92 7.295-.768 2.304 8.448 6.907 2.304 1.157 4.223 1.92 1.537 2.301 4.223 7.683-3.461 4.224.773 8.444 4.225 4.609-.383.767-5.371-2.689 1.918-3.075-9.984 6.92-.778 5.376 4.61.385 4.228 13.055 1.15h2.69l1.536-3.833 1.534-5.77 3.456-4.607h3.454l1.538 6.529 6.144.004 3.456-4.227 3.072 1.916 5.371-2.301 7.685-9.982 1.535 9.217 5.379 4.992.767-10.752 7.295-1.535 17.282 9.599 14.206 8.448 6.146.765z"/><path fill="none" stroke="#000" stroke-width=".425" stroke-miterlimit="3.864" d="M734.635 393.067l-1.18-11.519 1.922-1.152.385-8.063 3.07-2.687 1.535-1.153v-8.062l-5.377-1.922.772-3.072 5.759-3.073v-7.677l-1.535-1.159 1.535-4.986-7.297-6.523 7.297-2.694-2.306-11.135-6.144-5.377-.383-3.455-3.457.766-.388-1.15 2.692-3.461-8.064-3.455-2.302-5.756-4.608-.385-.767-8.832-4.226-1.537-3.073 2.687-1.152-1.15-14.208-5.377-.384-6.527-8.833 4.609-2.689 2.303-4.606-.768v-4.607l-5.376-.77-13.435 5.76-10.372-1.15-6.145 1.918-6.908-4.229-11.14 4.229 3.075 3.453-3.075 4.996 4.613 6.146 5.371 7.682-11.904 1.154-9.984 5.371-2.688-1.154-5.376 4.994 1.922 3.84-7.679 9.215-1.534-1.92-7.3 2.305.767-3.84-9.984-6.145v-4.222l-12.672-1.155-3.071-5.759-9.601 3.455.381 6.91-5.373 2.301 6.528 4.23v5.375l9.98 4.609.004 10.37 5.765 7.292-1.157.768 2.301 6.91-1.918 2.303-9.215 4.613-6.144-3.84-14.591 2.304 2.687 3.839-1.534 4.609-6.529 3.457 1.919 5.371 7.682 1.153 14.209-2.301-.386 1.92 7.295-.768 2.304 8.448 6.907 2.304 1.157 4.223 1.92 1.537 2.301 4.223 7.683-3.461 4.224.773 8.444 4.225 4.609-.383.767-5.371-2.689 1.918-3.075-9.984 6.92-.778 5.376 4.61.385 4.228 13.055 1.15h2.69l1.536-3.833 1.534-5.77 3.456-4.607h3.454l1.538 6.529 6.144.004 3.456-4.227 3.072 1.916 5.371-2.301 7.685-9.982 1.535 9.217 5.379 4.992.767-10.752 7.295-1.535 17.282 9.599 14.206 8.448 6.146.765z"/><path fill="#FFC" d="M687.021 481.005l8.419-3.457 3.456 1.154 8.447-2.31-2.688-5.371 1.534-4.991 1.919-2.306-2.3-9.6-2.305-2.693v-5.373l5.376-.381.764-1.535-6.907-9.6-8.835-8.449-.766-8.451 3.455-2.301.005-3.455 11.518 4.607.766-2.303h4.225l3.456 11.135 2.687 1.92 6.912-4.992.769-7.68 3.836-4.224 5.765-.385 1.912 2.687-6.911 11.907 13.445-3.84 6.527-7.297-1.154-2.303-8.063-12.289 2.307-2.687-9.988-3.075-15.739 5.375-6.146-.765-14.206-8.448-17.282-9.599-7.295 1.535-.767 10.752-5.379-4.992-1.535-9.217-7.685 9.982-5.371 2.301-3.072-1.916-3.456 4.227-6.144-.004-1.538-6.529h-3.454l-3.456 4.607-1.534 5.77-1.536 3.833h-2.69l1.537 8.067-8.833 14.59-6.528-.383-2.687 9.6 5.76 3.839 6.528 6.909-1.153 6.912 18.813-3.836 4.228 7.297 5.372.767 5.763 4.223 1.536.765 1.153 5.374 7.296.384 2.69 1.159 1.533-2.301 3.072 3.068 3.842-3.455.766 6.527 6.144 9.985z"/><path fill="none" stroke="#000" stroke-width=".425" stroke-miterlimit="3.864" d="M687.021 481.005l8.419-3.457 3.456 1.154 8.447-2.31-2.688-5.371 1.534-4.991 1.919-2.306-2.3-9.6-2.305-2.693v-5.373l5.376-.381.764-1.535-6.907-9.6-8.835-8.449-.766-8.451 3.455-2.301.005-3.455 11.518 4.607.766-2.303h4.225l3.456 11.135 2.687 1.92 6.912-4.992.769-7.68 3.836-4.224 5.765-.385 1.912 2.687-6.911 11.907 13.445-3.84 6.527-7.297-1.154-2.303-8.063-12.289 2.307-2.687-9.988-3.075-15.739 5.375-6.146-.765-14.206-8.448-17.282-9.599-7.295 1.535-.767 10.752-5.379-4.992-1.535-9.217-7.685 9.982-5.371 2.301-3.072-1.916-3.456 4.227-6.144-.004-1.538-6.529h-3.454l-3.456 4.607-1.534 5.77-1.536 3.833h-2.69l1.537 8.067-8.833 14.59-6.528-.383-2.687 9.6 5.76 3.839 6.528 6.909-1.153 6.912 18.813-3.836 4.228 7.297 5.372.767 5.763 4.223 1.536.765 1.153 5.374 7.296.384 2.69 1.159 1.533-2.301 3.072 3.068 3.842-3.455.766 6.527 6.144 9.985z"/><path fill="#FFC" d="M442.776 353.901l-.765 6.912 4.223 12.672 13.829 6.145v1.918l-9.984 1.922-1.92 6.144-2.688 3.832-10.75 4.616 8.062 13.056h-.384l-9.982.768-8.834-4.994-15.359-1.918-16.513-11.905 1.536-1.922 5.376-3.839 2.308.767 2.3-6.146-.382-9.6-1.542-6.523 4.226-7.688 4.992 4.611 5.76-1.916-.765-11.136 4.991-1.153 4.224 4.61 4.608.385 8.453-6.53z"/><path fill="none" stroke="#000" stroke-width=".425" stroke-miterlimit="3.864" d="M442.776 353.901l-.765 6.912 4.223 12.672 13.829 6.145v1.918l-9.984 1.922-1.92 6.144-2.688 3.832-10.75 4.616 8.062 13.056h-.384l-9.982.768-8.834-4.994-15.359-1.918-16.513-11.905 1.536-1.922 5.376-3.839 2.308.767 2.3-6.146-.382-9.6-1.542-6.523 4.226-7.688 4.992 4.611 5.76-1.916-.765-11.136 4.991-1.153 4.224 4.61 4.608.385 8.453-6.53z"/><path fill="#FFC" d="M615.568 435.692l-5.76-3.839 2.687-9.6 6.528.383 8.833-14.59-1.537-8.067-13.055-1.15-.385-4.228-5.376-4.61-6.92.778 3.075 9.984 2.689-1.918-.767 5.371-4.609.383-8.444-4.225-4.224-.773-7.683 3.461-2.301-4.223-1.92-1.537-1.157-4.223-6.907-2.304-2.304-8.448-7.295.768.386-1.92-14.209 2.301-7.682-1.153-3.072 1.153-8.832-3.457 1.536 7.295-1.536 4.224-1.925-.377-3.838.766-9.584-5.76-3.453 3.457 1.917 1.533-6.139 9.217 1.536 4.225-2.306 1.92 2.689 3.84-1.536 4.224 1.151 3.073-.386 3.457 8.052 4.222 4.227-.767 3.448 1.535-1.149 3.836 1.536 1.918-5.371 2.697 14.584 6.523-.378 6.912.764 4.606-.767 4.605-8.059 8.073 5.373 4.99.766.768h11.52l6.528 6.527 8.832-6.145v-1.918l6.528-1.537.384-3.072v-1.535l1.918-2.305h.386l21.504 1.537 13.437-11.136 6.526-11.903z"/><path fill="none" stroke="#000" stroke-width=".425" stroke-miterlimit="3.864" d="M615.568 435.692l-5.76-3.839 2.687-9.6 6.528.383 8.833-14.59-1.537-8.067-13.055-1.15-.385-4.228-5.376-4.61-6.92.778 3.075 9.984 2.689-1.918-.767 5.371-4.609.383-8.444-4.225-4.224-.773-7.683 3.461-2.301-4.223-1.92-1.537-1.157-4.223-6.907-2.304-2.304-8.448-7.295.768.386-1.92-14.209 2.301-7.682-1.153-3.072 1.153-8.832-3.457 1.536 7.295-1.536 4.224-1.925-.377-3.838.766-9.584-5.76-3.453 3.457 1.917 1.533-6.139 9.217 1.536 4.225-2.306 1.92 2.689 3.84-1.536 4.224 1.151 3.073-.386 3.457 8.052 4.222 4.227-.767 3.448 1.535-1.149 3.836 1.536 1.918-5.371 2.697 14.584 6.523-.378 6.912.764 4.606-.767 4.605-8.059 8.073 5.373 4.99.766.768h11.52l6.528 6.527 8.832-6.145v-1.918l6.528-1.537.384-3.072v-1.535l1.918-2.305h.386l21.504 1.537 13.437-11.136 6.526-11.903z"/><path fill="#FFC" d="M525.713 470.253l-5.373-4.99 8.059-8.073.767-4.605-.764-4.606.378-6.912-14.584-6.523 5.371-2.697-1.536-1.918 1.149-3.836-3.448-1.535-4.227.767-8.052-4.222.386-3.457-1.151-3.073 1.536-4.224-2.689-3.84 2.306-1.92-1.536-4.225 6.139-9.217-1.917-1.533-2.688-4.994-5.76-2.303-8.063-.769-4.609 6.144-2.303-7.679-4.225-3.455-1.151 6.527-8.065-1.537-2.304 2.687-7.296-2.687-9.984 1.922-1.92 6.144-2.688 3.832-10.75 4.616 8.062 13.056h-.384l-9.982.768-8.834-4.994-15.359-1.918-3.073 1.535 2.302 3.07-4.226 5.379.383 3.455 9.605-1.156 7.296 9.599 1.152 2.309 2.689 4.225-5.761 11.134h7.68l1.152 2.694 4.992.379-2.304 3.07 2.693 2.691-.005.383 3.455 5.377 3.073-3.072 3.835.385 1.158 1.918 8.831 1.152 3.073-4.609h3.839l1.152 2.687-1.92 3.457.768 3.072 2.301 4.995 3.075-3.073 9.6 5.371 3.84 1.541 3.456-3.076 2.688 1.155 8.064-3.84 6.912 7.3-1.536 4.985 4.225-2.692 18.799-6.527z"/><path fill="none" stroke="#000" stroke-width=".425" stroke-miterlimit="3.864" d="M525.713 470.253l-5.373-4.99 8.059-8.073.767-4.605-.764-4.606.378-6.912-14.584-6.523 5.371-2.697-1.536-1.918 1.149-3.836-3.448-1.535-4.227.767-8.052-4.222.386-3.457-1.151-3.073 1.536-4.224-2.689-3.84 2.306-1.92-1.536-4.225 6.139-9.217-1.917-1.533-2.688-4.994-5.76-2.303-8.063-.769-4.609 6.144-2.303-7.679-4.225-3.455-1.151 6.527-8.065-1.537-2.304 2.687-7.296-2.687-9.984 1.922-1.92 6.144-2.688 3.832-10.75 4.616 8.062 13.056h-.384l-9.982.768-8.834-4.994-15.359-1.918-3.073 1.535 2.302 3.07-4.226 5.379.383 3.455 9.605-1.156 7.296 9.599 1.152 2.309 2.689 4.225-5.761 11.134h7.68l1.152 2.694 4.992.379-2.304 3.07 2.693 2.691-.005.383 3.455 5.377 3.073-3.072 3.835.385 1.158 1.918 8.831 1.152 3.073-4.609h3.839l1.152 2.687-1.92 3.457.768 3.072 2.301 4.995 3.075-3.073 9.6 5.371 3.84 1.541 3.456-3.076 2.688 1.155 8.064-3.84 6.912 7.3-1.536 4.985 4.225-2.692 18.799-6.527z"/><path fill="#FFC" d="M629.038 541.276l-5.407-5.375-1.535-5.759 17.663-18.817-2.299-9.967-6.148-3.072-8.449-1.156-1.536 6.127-13.056 3.072-1.919 3.844 2.303 4.223-1.157 4.609-11.9 12.293-4.223.76v7.683l17.285 1.151 3.453 6.91-5.761 4.611 8.063 3.453 2.689-.381 8.065-4.609-1.153-5.764 1.153-3.455z"/><path fill="none" stroke="#000" stroke-width=".425" stroke-miterlimit="3.864" d="M629.038 541.276l-5.407-5.375-1.535-5.759 17.663-18.817-2.299-9.967-6.148-3.072-8.449-1.156-1.536 6.127-13.056 3.072-1.919 3.844 2.303 4.223-1.157 4.609-11.9 12.293-4.223.76v7.683l17.285 1.151 3.453 6.91-5.761 4.611 8.063 3.453 2.689-.381 8.065-4.609-1.153-5.764 1.153-3.455z"/><path fill="#FFC" d="M653.23 610.78l-2.717-12.672.383-2.687v-.385l-5.375-10.75.766-7.297-1.152-6.914.766-3.455-6.908-8.834-6.914-13.433-3.072-3.077-3.838.381-1.153 3.455 1.153 5.764-8.065 4.609-2.689.381-8.063-3.453 5.761-4.611-3.453-6.91-17.285-1.151v-7.683l4.223-.76 11.9-12.293 1.157-4.609-2.303-4.223 1.919-3.844 13.056-3.072 1.536-6.127 8.449 1.156 6.148 3.072 6.14.766 11.516-8.062 7.683 7.679 8.443-1.541 8.834-8.832 3.84-2.297 1.925-.004 3.839-1.154-1.153-3.068-.768-1.92-.77-1.92-3.838-1.535-6.144-9.985-.766-6.527-3.842 3.455-3.072-3.068-1.533 2.301-2.69-1.159-7.296-.384-1.153-5.374-1.536-.765-5.763-4.223-5.372-.767-4.228-7.297-18.813 3.836 1.153-6.912-6.528-6.909-11.526 3.842-6.526 11.903-13.437 11.136-21.504-1.537h-.386l-1.918 2.305v1.535l-.384 3.072-6.528 1.537v1.918l-8.832 6.145-6.528-6.527h-11.52v17.666l1.537 4.605 5.374 2.687 1.153 4.225 6.145 16.113-2.689 2.688-1.151-2.688-1.536 7.68-10.366.768 2.685 14.209-3.071 9.216-11.521 5.373 2.693 8.833-9.584 5.378 4.976 8.832-7.29 3.452-1.915 4.609 9.2 4.99 4.609 10.756 8.832-1.156 4.225-4.99 6.91 3.074 1.153 2.689-3.073 2.301 6.144-.383 2.305 3.455 2.689 4.989-1.538 2.693 5.76-6.527 5.373-1.922 7.3 3.457 4.221-2.692-.765-8.06-.385-1.539 6.14-4.606 7.295-5.759-.378-4.991 2.687-2.687 7.68.765 5.765-6.144 1.532-1.535 4.607-8.832 9.216 2.689 1.536 6.912 3.456.766 7.298-.766 5.374 9.215 5.761-1.537 6.911 17.281.768 3.073 4.608-1.538 1.536 3.073-8.447 13.824-6.145.385v.384l9.601 3.071z"/><path fill="none" stroke="#000" stroke-width=".425" stroke-miterlimit="3.864" d="M653.23 610.78l-2.717-12.672.383-2.687v-.385l-5.375-10.75.766-7.297-1.152-6.914.766-3.455-6.908-8.834-6.914-13.433-3.072-3.077-3.838.381-1.153 3.455 1.153 5.764-8.065 4.609-2.689.381-8.063-3.453 5.761-4.611-3.453-6.91-17.285-1.151v-7.683l4.223-.76 11.9-12.293 1.157-4.609-2.303-4.223 1.919-3.844 13.056-3.072 1.536-6.127 8.449 1.156 6.148 3.072 6.14.766 11.516-8.062 7.683 7.679 8.443-1.541 8.834-8.832 3.84-2.297 1.925-.004 3.839-1.154-1.153-3.068-.768-1.92-.77-1.92-3.838-1.535-6.144-9.985-.766-6.527-3.842 3.455-3.072-3.068-1.533 2.301-2.69-1.159-7.296-.384-1.153-5.374-1.536-.765-5.763-4.223-5.372-.767-4.228-7.297-18.813 3.836 1.153-6.912-6.528-6.909-11.526 3.842-6.526 11.903-13.437 11.136-21.504-1.537h-.386l-1.918 2.305v1.535l-.384 3.072-6.528 1.537v1.918l-8.832 6.145-6.528-6.527h-11.52v17.666l1.537 4.605 5.374 2.687 1.153 4.225 6.145 16.113-2.689 2.688-1.151-2.688-1.536 7.68-10.366.768 2.685 14.209-3.071 9.216-11.521 5.373 2.693 8.833-9.584 5.378 4.976 8.832-7.29 3.452-1.915 4.609 9.2 4.99 4.609 10.756 8.832-1.156 4.225-4.99 6.91 3.074 1.153 2.689-3.073 2.301 6.144-.383 2.305 3.455 2.689 4.989-1.538 2.693 5.76-6.527 5.373-1.922 7.3 3.457 4.221-2.692-.765-8.06-.385-1.539 6.14-4.606 7.295-5.759-.378-4.991 2.687-2.687 7.68.765 5.765-6.144 1.532-1.535 4.607-8.832 9.216 2.689 1.536 6.912 3.456.766 7.298-.766 5.374 9.215 5.761-1.537 6.911 17.281.768 3.073 4.608-1.538 1.536 3.073-8.447 13.824-6.145.385v.384l9.601 3.071z"/><path fill="#FFC" d="M418.591 444.524h7.68l1.152 2.694 4.992.379-2.304 3.07 2.693 2.691-.005.383 3.455 5.377 3.073-3.072 3.835.385 1.158 1.918 8.831 1.152 3.073-4.609h3.839l1.152 2.687-1.92 3.457.768 3.072 2.301 4.995 3.075-3.073 9.6 5.371 3.84 1.541 3.456-3.076 2.688 1.155 8.064-3.84 6.912 7.3-1.536 4.985 4.225-2.692 18.799-6.527h4.226l.766.774v17.666l1.537 4.605 5.374 2.687 1.153 4.225 6.145 16.113-2.689 2.688-1.151-2.688-1.536 7.68-10.366.768 2.685 14.209-3.071 9.216-11.521 5.373 2.693 8.833-9.584 5.378 4.976 8.832-7.29 3.452-1.918 4.613 2.691 7.682-4.228 3.837-3.836 1.534-1.151-4.223-16.128 4.607-3.456-.765-4.609-9.225-4.992-6.521-3.84-4.602-9.216-8.832-5.759-1.537-16.128-2.691-4.993 1.918-4.608-8.448 5.76-1.533 5.759-9.221-.383-.38-4.227-1.153-5.373-3.072v-4.994l-5.376-4.606-5.381-1.158-3.072-3.84 7.684-11.9-7.295-4.606 4.608-10.736v-4.609l-2.683-1.151.384-4.226 6.909-3.455-1.538-3.073-2.688-3.845 1.536-4.991 5.376.389 2.304-1.926-.385-8.062-.383.006-4.608 1.533v-2.693l-6.523-5.37.379-5.759 1.536-7.297z"/><path fill="none" stroke="#000" stroke-width=".425" stroke-miterlimit="3.864" d="M418.591 444.524h7.68l1.152 2.694 4.992.379-2.304 3.07 2.693 2.691-.005.383 3.455 5.377 3.073-3.072 3.835.385 1.158 1.918 8.831 1.152 3.073-4.609h3.839l1.152 2.687-1.92 3.457.768 3.072 2.301 4.995 3.075-3.073 9.6 5.371 3.84 1.541 3.456-3.076 2.688 1.155 8.064-3.84 6.912 7.3-1.536 4.985 4.225-2.692 18.799-6.527h4.226l.766.774v17.666l1.537 4.605 5.374 2.687 1.153 4.225 6.145 16.113-2.689 2.688-1.151-2.688-1.536 7.68-10.366.768 2.685 14.209-3.071 9.216-11.521 5.373 2.693 8.833-9.584 5.378 4.976 8.832-7.29 3.452-1.918 4.613 2.691 7.682-4.228 3.837-3.836 1.534-1.151-4.223-16.128 4.607-3.456-.765-4.609-9.225-4.992-6.521-3.84-4.602-9.216-8.832-5.759-1.537-16.128-2.691-4.993 1.918-4.608-8.448 5.76-1.533 5.759-9.221-.383-.38-4.227-1.153-5.373-3.072v-4.994l-5.376-4.606-5.381-1.158-3.072-3.84 7.684-11.9-7.295-4.606 4.608-10.736v-4.609l-2.683-1.151.384-4.226 6.909-3.455-1.538-3.073-2.688-3.845 1.536-4.991 5.376.389 2.304-1.926-.385-8.062-.383.006-4.608 1.533v-2.693l-6.523-5.37.379-5.759 1.536-7.297z"/><path fill="#FFC" d="M418.591 444.524l5.761-11.134-2.689-4.225-1.152-2.309-7.296-9.599-9.605 1.156-.383-3.455 4.226-5.379-2.302-3.07 3.073-1.535-16.513-11.905 1.536-1.922 5.371-3.839-3.84-2.688-4.987-13.057 3.077-3.841v-4.608l-2.691-2.301-9.6-2.304-6.533 1.153-1.912-9.216-7.301-4.609-6.526 2.305-1.922 4.988-5.76 4.228 3.456 1.918-3.072 5.371 5.376-3.457 1.536 3.461-2.692 3.073 2.303 2.306-1.147 1.151-1.915-1.918-8.448 3.84-2.688-2.69-6.533 4.99-3.071 3.073-1.156 2.3 4.612 3.459 4.228 3.073-1.925 6.912 6.529.767 5.376 4.229-5.376 6.142 1.535 2.299-10.752 11.524v1.922l-5.376 1.918-.77 8.826-.382 15.367-11.52-4.225-.384 3.457 2.688 14.975 2.688 2.687-3.072 2.688 2.688 7.297 3.84.765 3.456 4.227 9.98 4.607 1.542-.384 2.691-7.678-1.157-6.912 8.448-1.155 1.153-7.296 15.743-9.981 6.908-.767 6.527.767 7.301 4.606 1.92-4.225 3.072-2.303 5.76 1.533 4.608-11.906 4.993 2.696 3.839 4.99z"/><path fill="none" stroke="#000" stroke-width=".425" stroke-miterlimit="3.864" d="M418.591 444.524l5.761-11.134-2.689-4.225-1.152-2.309-7.296-9.599-9.605 1.156-.383-3.455 4.226-5.379-2.302-3.07 3.073-1.535-16.513-11.905 1.536-1.922 5.371-3.839-3.84-2.688-4.987-13.057 3.077-3.841v-4.608l-2.691-2.301-9.6-2.304-6.533 1.153-1.912-9.216-7.301-4.609-6.526 2.305-1.922 4.988-5.76 4.228 3.456 1.918-3.072 5.371 5.376-3.457 1.536 3.461-2.692 3.073 2.303 2.306-1.147 1.151-1.915-1.918-8.448 3.84-2.688-2.69-6.533 4.99-3.071 3.073-1.156 2.3 4.612 3.459 4.228 3.073-1.925 6.912 6.529.767 5.376 4.229-5.376 6.142 1.535 2.299-10.752 11.524v1.922l-5.376 1.918-.77 8.826-.382 15.367-11.52-4.225-.384 3.457 2.688 14.975 2.688 2.687-3.072 2.688 2.688 7.297 3.84.765 3.456 4.227 9.98 4.607 1.542-.384 2.691-7.678-1.157-6.912 8.448-1.155 1.153-7.296 15.743-9.981 6.908-.767 6.527.767 7.301 4.606 1.92-4.225 3.072-2.303 5.76 1.533 4.608-11.906 4.993 2.696 3.839 4.99z"/><path fill="#FFC" d="M412.449 531.292l-14.21 3.457-7.296-3.842-9.6-1.148-.766-4.608-3.072 2.301-13.056-3.072-2.305-.389-13.828-4.217-.38-5.761-9.985 3.834-14.208-4.217-.766-8.067 12.291-8.044 1.536-1.155-1.536-2.687-15.364-12.676 3.455-6.908 3.84.765 3.456 4.227 9.98 4.607 1.542-.384 2.691-7.678-1.157-6.912 8.448-1.155 1.153-7.296 15.743-9.981 6.908-.767 6.527.767 7.301 4.606 1.92-4.225 3.072-2.303 5.76 1.533 4.608-11.906 4.993 2.696 3.839 4.99-1.536 7.297-.379 5.759 6.523 5.37v2.693l4.608-1.533.383-.006.385 8.062-2.304 1.926-5.376-.389-1.536 4.991 2.688 3.845 1.538 3.073-6.909 3.455-.384 4.226 2.683 1.151v4.609l-4.608 10.736 7.295 4.606-7.684 11.9z"/><path fill="none" stroke="#000" stroke-width=".425" stroke-miterlimit="3.864" d="M412.449 531.292l-14.21 3.457-7.296-3.842-9.6-1.148-.766-4.608-3.072 2.301-13.056-3.072-2.305-.389-13.828-4.217-.38-5.761-9.985 3.834-14.208-4.217-.766-8.067 12.291-8.044 1.536-1.155-1.536-2.687-15.364-12.676 3.455-6.908 3.84.765 3.456 4.227 9.98 4.607 1.542-.384 2.691-7.678-1.157-6.912 8.448-1.155 1.153-7.296 15.743-9.981 6.908-.767 6.527.767 7.301 4.606 1.92-4.225 3.072-2.303 5.76 1.533 4.608-11.906 4.993 2.696 3.839 4.99-1.536 7.297-.379 5.759 6.523 5.37v2.693l4.608-1.533.383-.006.385 8.062-2.304 1.926-5.376-.389-1.536 4.991 2.688 3.845 1.538 3.073-6.909 3.455-.384 4.226 2.683 1.151v4.609l-4.608 10.736 7.295 4.606-7.684 11.9z"/><g><path fill="#FFC" d="M420.911 800.856l-2.512-7.37-7.872 2.767 4.622 5.983z"/><path fill="none" stroke="#000" stroke-width=".425" stroke-miterlimit="3.864" d="M420.911 800.856l-2.512-7.37-7.872 2.767 4.622 5.983z"/><path fill="#FFC" d="M305.312 785.118l-4.225-9.217-9.216.768 3.072 9.6z"/><path fill="none" stroke="#000" stroke-width=".425" stroke-miterlimit="3.864" d="M305.312 785.118l-4.225-9.217-9.216.768 3.072 9.6z"/><g><path fill="#FFC" d="M365.631 796.636l13.403-12.287-4.223-4.991-4.993-.767-12.672-8.067 8.834-1.535 16.899 2.688 24.574 11.519 12.29 6.147 7.906 2.393-6.753-21.212-16.897-10.755-4.992-2.303-14.203-13.82 2.3-4.61 8.063 3.84 2.688-1.535-3.451-13.828.379-3.455h3.84l4.608 6.146 6.528-1.918-1.92-4.994 6.53-4.605.766-4.612-.384-3.455-11.136-5.758-9.216-4.609 1.537-4.223-3.073-3.072-11.909 1.15-11.9 4.61-3.071-3.842-19.2 8.832-7.679 11.521-7.681-3.455.773-14.593-5.763 11.136-16.128 3.84-3.456-4.992-4.226 5.76-3.072-1.92 1.531 6.908-4.991 7.678-5.372 1.158-3.84-3.457-7.28 20.354 3.44 15.359 4.994-2.688 3.454-10.754 6.912 8.45 6.144 3.457 6.528 4.605-7.3 8.444 6.143 5.378-2.294 8.836 17.28 6.53 3.456-6.53-4.226-4.224-5.763-1.151.768-4.224 8.832-7.297 3.072 9.215 7.301 3.84 5.756-.383.383.383-5.375 2.3-.383 6.151 6.528 9.978 5.374 2.694z"/><path fill="none" stroke="#000" stroke-width=".425" stroke-miterlimit="3.864" d="M365.631 796.636l13.403-12.287-4.223-4.991-4.993-.767-12.672-8.067 8.834-1.535 16.899 2.688 24.574 11.519 12.29 6.147 7.906 2.393-6.753-21.212-16.897-10.755-4.992-2.303-14.203-13.82 2.3-4.61 8.063 3.84 2.688-1.535-3.451-13.828.379-3.455h3.84l4.608 6.146 6.528-1.918-1.92-4.994 6.53-4.605.766-4.612-.384-3.455-11.136-5.758-9.216-4.609 1.537-4.223-3.073-3.072-11.909 1.15-11.9 4.61-3.071-3.842-19.2 8.832-7.679 11.521-7.681-3.455.773-14.593-5.763 11.136-16.128 3.84-3.456-4.992-4.226 5.76-3.072-1.92 1.531 6.908-4.991 7.678-5.372 1.158-3.84-3.457-7.28 20.354 3.44 15.359 4.994-2.688 3.454-10.754 6.912 8.45 6.144 3.457 6.528 4.605-7.3 8.444 6.143 5.378-2.294 8.836 17.28 6.53 3.456-6.53-4.226-4.224-5.763-1.151.768-4.224 8.832-7.297 3.072 9.215 7.301 3.84 5.756-.383.383.383-5.375 2.3-.383 6.151 6.528 9.978 5.374 2.694z"/></g></g><g><path fill="#FFC" d="M395.198 742.876l12.257 8.832 23.809 14.979 5.376 11.517 13.439 12.289 3.072 1.92 6.912 3.072 6.144 3.073 9.601-2.692 17.279 6.526 8.064.382 4.224 5 4.608 8.063.384 4.609 6.125 6.139 12.293 1.156 4.605.383 1.922-3.455 3.839.768-.764-4.995 13.049-2.3-2.301-6.528 1.536-3.072 5.371 1.533 6.147-4.99 2.69-3.455-3.838-9.984-4.226-1.922h-9.6l-5.758-1.92.767-5.373-6.912 1.533-7.681-9.606-9.216-2.3-15.344.002-3.072-10.368-4.992-1.918-3.46 3.071-4.992-7.297 7.679-11.135-8.443-6.908-1.92 2.301-3.067-1.155-3.456.385-7.299-6.912-6.529-8.066-4.988-3.073-8.448 3.073-7.303-8.444-5.369 10.746-4.608-1.918-7.68 6.145-15.365-2.301-6.528 1.918-4.608-6.146h-3.84l-.379 3.455 3.451 13.828z"/><path fill="none" stroke="#000" stroke-width=".425" stroke-miterlimit="3.864" d="M395.198 742.876l12.257 8.832 23.809 14.979 5.376 11.517 13.439 12.289 3.072 1.92 6.912 3.072 6.144 3.073 9.601-2.692 17.279 6.526 8.064.382 4.224 5 4.608 8.063.384 4.609 6.125 6.139 12.293 1.156 4.605.383 1.922-3.455 3.839.768-.764-4.995 13.049-2.3-2.301-6.528 1.536-3.072 5.371 1.533 6.147-4.99 2.69-3.455-3.838-9.984-4.226-1.922h-9.6l-5.758-1.92.767-5.373-6.912 1.533-7.681-9.606-9.216-2.3-15.344.002-3.072-10.368-4.992-1.918-3.46 3.071-4.992-7.297 7.679-11.135-8.443-6.908-1.92 2.301-3.067-1.155-3.456.385-7.299-6.912-6.529-8.066-4.988-3.073-8.448 3.073-7.303-8.444-5.369 10.746-4.608-1.918-7.68 6.145-15.365-2.301-6.528 1.918-4.608-6.146h-3.84l-.379 3.455 3.451 13.828z"/></g><g><path fill="#FFC" d="M551.436 818.142l-2.301-6.528 1.536-3.072 5.371 1.533 6.147-4.99 2.69-3.455-3.838-9.984-4.226-1.922h-9.6l-5.758-1.92.767-5.373-6.912 1.533-7.681-9.606-9.216-2.3-15.344.002-3.072-10.368-4.992-1.918-3.46 3.071-4.992-7.297 7.679-11.135-8.443-6.908-1.92 2.301-3.072-1.159-2.304-13.056-5.76-9.6 6.144-8.826-.384-1.92 1.152-2.303 1.537-1.918-1.153-7.3 5.381.769-1.154-9.217 8.447-.384 7.678 1.539 1.536-1.155 6.144-9.984 6.128 9.217 1.537.767 1.917-3.076 1.154 1.924.38-13.434 11.135.381 4.231 13.432 6.526.389 11.136-6.528 3.456 4.227 4.992-2.69 8.064 2.303 17.28 6.914 6.528-1.922 5.371-8.062 9.605-.77 3.456 6.528 29.185 6.91 6.143-9.598 5.76-3.074 4.229 2.689-4.234 1.539-1.151 4.991 6.532 7.297-.382 6.912v1.15l-.77 14.209-3.456 3.842h-3.839l1.537 4.605 4.606-3.84 2.301 9.6 5.379 7.297 1.152 3.072-4.992 4.225h-6.144l-6.528 6.527 13.056 11.52-1.154 5.754.767 6.912 5.767 5.765-2.303 10.367-8.832 4.227-4.612 9.6-4.225-15.36-11.136-1.537-4.992 1.537-7.294 9.983h-8.834l-3.459-1.92-6.528-1.535-3.453-4.229-11.52.383-10.366 9.601 1.534 1.534-12.672 14.982-3.456-4.225-1.92 2.688-6.147 1.922z"/><path fill="none" stroke="#000" stroke-width=".425" stroke-miterlimit="3.864" d="M551.436 818.142l-2.301-6.528 1.536-3.072 5.371 1.533 6.147-4.99 2.69-3.455-3.838-9.984-4.226-1.922h-9.6l-5.758-1.92.767-5.373-6.912 1.533-7.681-9.606-9.216-2.3-15.344.002-3.072-10.368-4.992-1.918-3.46 3.071-4.992-7.297 7.679-11.135-8.443-6.908-1.92 2.301-3.072-1.159-2.304-13.056-5.76-9.6 6.144-8.826-.384-1.92 1.152-2.303 1.537-1.918-1.153-7.3 5.381.769-1.154-9.217 8.447-.384 7.678 1.539 1.536-1.155 6.144-9.984 6.128 9.217 1.537.767 1.917-3.076 1.154 1.924.38-13.434 11.135.381 4.231 13.432 6.526.389 11.136-6.528 3.456 4.227 4.992-2.69 8.064 2.303 17.28 6.914 6.528-1.922 5.371-8.062 9.605-.77 3.456 6.528 29.185 6.91 6.143-9.598 5.76-3.074 4.229 2.689-4.234 1.539-1.151 4.991 6.532 7.297-.382 6.912v1.15l-.77 14.209-3.456 3.842h-3.839l1.537 4.605 4.606-3.84 2.301 9.6 5.379 7.297 1.152 3.072-4.992 4.225h-6.144l-6.528 6.527 13.056 11.52-1.154 5.754.767 6.912 5.767 5.765-2.303 10.367-8.832 4.227-4.612 9.6-4.225-15.36-11.136-1.537-4.992 1.537-7.294 9.983h-8.834l-3.459-1.92-6.528-1.535-3.453-4.229-11.52.383-10.366 9.601 1.534 1.534-12.672 14.982-3.456-4.225-1.92 2.688-6.147 1.922z"/></g><g><path fill="#FFC" d="M656.303 681.819l2.272-.382 1.154-10.75 3.456-4.612.383-2.301-.769-1.539 2.305-14.589-.383-11.137-.002-1.535-.768-3.455-6.915-8.067-.381-.765-3.456-11.907-11.519 8.065-9.601-3.071v-.384l6.145-.385 8.447-13.824-1.536-3.073-4.608 1.538-.768-3.073-6.911-17.281-5.761 1.537-5.374-9.215-7.298.766-3.456-.766-1.536-6.912-9.216-2.689-4.607 8.832-1.532 1.535-5.765 6.144-7.68-.765-2.687 2.687.378 4.991-7.295 5.759-6.14 4.606.385 1.539.765 8.06-4.221 2.692-7.3-3.457-5.373 1.922-5.76 6.527 1.538-2.693-2.689-4.989-2.305-3.455-6.144.383 3.073-2.301-1.153-2.689-6.91-3.074-4.225 4.99-8.832 1.156-4.609-10.756-9.2-4.99 2.688 7.686-4.228 3.837-3.836 1.534-1.151-4.223-16.128 4.607-3.456-.765-4.609-9.225-4.992-6.527-9.983 7.301 3.071 11.902-5.374 9.6-9.216 3.459 13.827 8.449 2.301 7.295 7.299 2.689-.773 3.455 6.528 1.151 4.992-.383-.768-1.918 8.834 4.988 11.136 4.611 7.678 2.303 1.536 1.149 4.592 1.15 2.69 4.611 6.523 1.155 2.69 4.996v3.836l4.226 2.302 2.303 5.375 4.226 13.436 6.526.389 11.136-6.528 3.456 4.227 4.992-2.69 8.064 2.303 17.28 6.914 6.528-1.922 5.371-8.062 9.605-.77 3.456 6.528 29.185 6.91 6.143-9.598 5.76-3.074z"/><path fill="none" stroke="#000" stroke-width=".425" stroke-miterlimit="3.864" d="M656.303 681.819l2.272-.382 1.154-10.75 3.456-4.612.383-2.301-.769-1.539 2.305-14.589-.383-11.137-.002-1.535-.768-3.455-6.915-8.067-.381-.765-3.456-11.907-11.519 8.065-9.601-3.071v-.384l6.145-.385 8.447-13.824-1.536-3.073-4.608 1.538-.768-3.073-6.911-17.281-5.761 1.537-5.374-9.215-7.298.766-3.456-.766-1.536-6.912-9.216-2.689-4.607 8.832-1.532 1.535-5.765 6.144-7.68-.765-2.687 2.687.378 4.991-7.295 5.759-6.14 4.606.385 1.539.765 8.06-4.221 2.692-7.3-3.457-5.373 1.922-5.76 6.527 1.538-2.693-2.689-4.989-2.305-3.455-6.144.383 3.073-2.301-1.153-2.689-6.91-3.074-4.225 4.99-8.832 1.156-4.609-10.756-9.2-4.99 2.688 7.686-4.228 3.837-3.836 1.534-1.151-4.223-16.128 4.607-3.456-.765-4.609-9.225-4.992-6.527-9.983 7.301 3.071 11.902-5.374 9.6-9.216 3.459 13.827 8.449 2.301 7.295 7.299 2.689-.773 3.455 6.528 1.151 4.992-.383-.768-1.918 8.834 4.988 11.136 4.611 7.678 2.303 1.536 1.149 4.592 1.15 2.69 4.611 6.523 1.155 2.69 4.996v3.836l4.226 2.302 2.303 5.375 4.226 13.436 6.526.389 11.136-6.528 3.456 4.227 4.992-2.69 8.064 2.303 17.28 6.914 6.528-1.922 5.371-8.062 9.605-.77 3.456 6.528 29.185 6.91 6.143-9.598 5.76-3.074z"/></g><g><path fill="#FFC" d="M480.799 738.647l-2.304-13.056-5.76-9.6 6.144-8.826-.384-1.92 1.152-2.303 1.537-1.918-1.153-7.3 5.381.769-1.154-9.217 8.447-.384 7.678 1.539 1.536-1.155 6.144-9.984 6.128 9.217 1.537.767 1.917-3.076 1.154 1.924.38-13.434 11.135.381-2.298-5.379-4.226-2.302v-3.836l-2.69-4.996-6.523-1.155-2.69-4.611-4.592-1.15-1.536-1.149-7.678-2.303-11.136-4.611-8.834-4.988.768 1.918-4.992.383-6.528-1.151.773-3.455-7.299-2.689-2.301-7.295-13.827-8.449 9.216-3.459 5.374-9.6-3.071-11.902 9.983-7.301-3.84-4.596-9.216-8.832-5.759-1.537-16.128-2.691-4.993 1.918-1.152 4.224-18.431 6.527.765 5.76 18.047 10.367-2.296 4.227 2.301 9.215-3.073 7.299-4.609 3.836.384 3.455-11.131-8.834-6.144 3.072-13.832-6.139-5.372 1.918-3.075 5.377-3.838 7.68-6.911 1.537-.765 4.605 2.297 6.53 3.456 1.537 4.995 6.144-2.301 4.606-9.982.767-1.92-1.917-1.157 1.146 5.377 10.367 4.992-.767 3.456.773 4.991 4.992-1.535 8.447 3.456 3.454-2.305 4.228v13.822l11.904-1.15 3.073 3.072-1.537 4.223 9.216 4.609 11.136 5.758.384 3.455-.766 4.612-6.53 4.605 1.92 4.994 15.365 2.301 7.68-6.145 4.608 1.918 5.369-10.746 7.303 8.444 8.448-3.073 4.988 3.073 6.529 8.066 7.299 6.912z"/><path fill="none" stroke="#000" stroke-width=".425" stroke-miterlimit="3.864" d="M480.799 738.647l-2.304-13.056-5.76-9.6 6.144-8.826-.384-1.92 1.152-2.303 1.537-1.918-1.153-7.3 5.381.769-1.154-9.217 8.447-.384 7.678 1.539 1.536-1.155 6.144-9.984 6.128 9.217 1.537.767 1.917-3.076 1.154 1.924.38-13.434 11.135.381-2.298-5.379-4.226-2.302v-3.836l-2.69-4.996-6.523-1.155-2.69-4.611-4.592-1.15-1.536-1.149-7.678-2.303-11.136-4.611-8.834-4.988.768 1.918-4.992.383-6.528-1.151.773-3.455-7.299-2.689-2.301-7.295-13.827-8.449 9.216-3.459 5.374-9.6-3.071-11.902 9.983-7.301-3.84-4.596-9.216-8.832-5.759-1.537-16.128-2.691-4.993 1.918-1.152 4.224-18.431 6.527.765 5.76 18.047 10.367-2.296 4.227 2.301 9.215-3.073 7.299-4.609 3.836.384 3.455-11.131-8.834-6.144 3.072-13.832-6.139-5.372 1.918-3.075 5.377-3.838 7.68-6.911 1.537-.765 4.605 2.297 6.53 3.456 1.537 4.995 6.144-2.301 4.606-9.982.767-1.92-1.917-1.157 1.146 5.377 10.367 4.992-.767 3.456.773 4.991 4.992-1.535 8.447 3.456 3.454-2.305 4.228v13.822l11.904-1.15 3.073 3.072-1.537 4.223 9.216 4.609 11.136 5.758.384 3.455-.766 4.612-6.53 4.605 1.92 4.994 15.365 2.301 7.68-6.145 4.608 1.918 5.369-10.746 7.303 8.444 8.448-3.073 4.988 3.073 6.529 8.066 7.299 6.912z"/></g><g><path fill="#FFC" d="M380.959 694.108v-13.822l2.305-4.228-3.456-3.454 1.535-8.447-4.991-4.992-3.456-.773-4.992.767-5.377-10.367 1.157-1.146 1.92 1.917 9.982-.767 2.301-4.606-4.995-6.144-3.456-1.537-2.301-6.53-3.84 1.54-6.144-2.69-4.992 1.535-2.688-.385-4.608-10.75-.384-1.537-5.379-3.839h-2.301l-.768-8.069-3.459-3.455-5.368-1.533-5.765.767-1.535 6.913-3.071 1.154.382 2.687-4.991 4.608-8.448 1.916-4.225 5.763-5.755-.384-6.148 6.91-9.599 5.762.766 4.226 8.064 9.215-1.153 2.303 1.922 1.154 1.156 2.691-3.461 6.905 8.064 6.148-2.688 2.686 1.535 5.759-4.99 5.768-2.305 5.365-5.376-2.3-5.371 2.689.762 15.744 5.374 6.912-1.533 2.688 8.064 8.447 3.84 3.457 5.372-1.158 4.991-7.678-1.531-6.908 3.072 1.92 4.226-5.76 3.456 4.992 16.128-3.84 5.763-11.136-.773 14.593 7.681 3.455 7.679-11.521 19.2-8.832 3.071 3.842z"/><path fill="none" stroke="#000" stroke-width=".425" stroke-miterlimit="3.864" d="M380.959 694.108v-13.822l2.305-4.228-3.456-3.454 1.535-8.447-4.991-4.992-3.456-.773-4.992.767-5.377-10.367 1.157-1.146 1.92 1.917 9.982-.767 2.301-4.606-4.995-6.144-3.456-1.537-2.301-6.53-3.84 1.54-6.144-2.69-4.992 1.535-2.688-.385-4.608-10.75-.384-1.537-5.379-3.839h-2.301l-.768-8.069-3.459-3.455-5.368-1.533-5.765.767-1.535 6.913-3.071 1.154.382 2.687-4.991 4.608-8.448 1.916-4.225 5.763-5.755-.384-6.148 6.91-9.599 5.762.766 4.226 8.064 9.215-1.153 2.303 1.922 1.154 1.156 2.691-3.461 6.905 8.064 6.148-2.688 2.686 1.535 5.759-4.99 5.768-2.305 5.365-5.376-2.3-5.371 2.689.762 15.744 5.374 6.912-1.533 2.688 8.064 8.447 3.84 3.457 5.372-1.158 4.991-7.678-1.531-6.908 3.072 1.92 4.226-5.76 3.456 4.992 16.128-3.84 5.763-11.136-.773 14.593 7.681 3.455 7.679-11.521 19.2-8.832 3.071 3.842z"/></g><g><path fill="#FFC" d="M314.525 527.837l-1.534 4.609.767 8.063-10.365 5.762 6.142 2.687v2.301l-14.592 5.763-3.072 2.303 8.448 4.61-4.613 4.609 8.07 4.221 3.073 9.599-1.918 3.84 5.369 5.76 4.995 2.307-6.527 7.292 8.065 8.067 3.071-1.154 1.535-6.913 5.765-.767 5.368 1.533 3.459 3.455.768 8.069h2.301l5.379 3.839.384 1.537 4.608 10.75 2.688.385 4.992-1.535 6.144 2.69 3.84-1.54.769-4.605 6.911-1.537 3.838-7.68 3.075-5.377 5.372-1.918 13.832 6.139 6.144-3.072 11.131 8.834-.384-3.455 4.609-3.836 3.073-7.299-2.301-9.215 2.296-4.227-18.047-10.367-.765-5.76 18.431-6.527 1.152-4.224-4.608-8.448 5.76-1.533 5.759-9.221-.383-.38-4.227-1.153-5.373-3.072v-4.994l-5.376-4.606-5.374-1.154-14.21 3.457-7.296-3.842-9.6-1.148-.766-4.608-3.072 2.301-13.056-3.072-2.305-.389-13.828-4.217-.38-5.761-9.985 3.834-14.208-4.217-1.536 2.301-2.303 9.982z"/><path fill="none" stroke="#000" stroke-width=".425" stroke-miterlimit="3.864" d="M314.525 527.837l-1.534 4.609.767 8.063-10.365 5.762 6.142 2.687v2.301l-14.592 5.763-3.072 2.303 8.448 4.61-4.613 4.609 8.07 4.221 3.073 9.599-1.918 3.84 5.369 5.76 4.995 2.307-6.527 7.292 8.065 8.067 3.071-1.154 1.535-6.913 5.765-.767 5.368 1.533 3.459 3.455.768 8.069h2.301l5.379 3.839.384 1.537 4.608 10.75 2.688.385 4.992-1.535 6.144 2.69 3.84-1.54.769-4.605 6.911-1.537 3.838-7.68 3.075-5.377 5.372-1.918 13.832 6.139 6.144-3.072 11.131 8.834-.384-3.455 4.609-3.836 3.073-7.299-2.301-9.215 2.296-4.227-18.047-10.367-.765-5.76 18.431-6.527 1.152-4.224-4.608-8.448 5.76-1.533 5.759-9.221-.383-.38-4.227-1.153-5.373-3.072v-4.994l-5.376-4.606-5.374-1.154-14.21 3.457-7.296-3.842-9.6-1.148-.766-4.608-3.072 2.301-13.056-3.072-2.305-.389-13.828-4.217-.38-5.761-9.985 3.834-14.208-4.217-1.536 2.301-2.303 9.982z"/></g><g><path fill="#FFC" d="M199.325 603.103l.767 1.533 13.829 1.922 12.67-3.073 12.288 1.916-1.153-5.371 9.98 1.151 1.162 3.84 9.211 1.152 9.601 14.592-3.456 4.609 9.983 16.512 4.608-.768-.766-4.226 9.599-5.762 6.148-6.91 5.755.384 4.225-5.763 8.448-1.916 4.991-4.608-.382-2.687-8.065-8.067 6.527-7.292-4.995-2.307-5.369-5.76 1.918-3.84-3.073-9.599-8.07-4.221 4.613-4.609-8.448-4.61 3.072-2.303 14.592-5.763v-2.301l-6.142-2.687 10.365-5.762-.767-8.063 1.534-4.609-11.518-3.457-3.456-4.99-17.28 1.154-8.064-2.691-2.303.767-4.993-1.918h-7.679l1.536 6.527-9.601 1.918 4.229 9.217-7.685 3.84 7.301 7.682-1.541 4.607-8.448.383-4.219 4.609-2.693-8.064-7.291-.006-10.752-6.527.381-14.59-7.681-3.84-6.529 14.209 4.229 7.297 1.915 11.521-11.515 3.834 2.683 11.139-2.302 4.229 2.302 11.132 3.456 1.539-.768 8.446z"/><path fill="none" stroke="#000" stroke-width=".425" stroke-miterlimit="3.864" d="M199.325 603.103l.767 1.533 13.829 1.922 12.67-3.073 12.288 1.916-1.153-5.371 9.98 1.151 1.162 3.84 9.211 1.152 9.601 14.592-3.456 4.609 9.983 16.512 4.608-.768-.766-4.226 9.599-5.762 6.148-6.91 5.755.384 4.225-5.763 8.448-1.916 4.991-4.608-.382-2.687-8.065-8.067 6.527-7.292-4.995-2.307-5.369-5.76 1.918-3.84-3.073-9.599-8.07-4.221 4.613-4.609-8.448-4.61 3.072-2.303 14.592-5.763v-2.301l-6.142-2.687 10.365-5.762-.767-8.063 1.534-4.609-11.518-3.457-3.456-4.99-17.28 1.154-8.064-2.691-2.303.767-4.993-1.918h-7.679l1.536 6.527-9.601 1.918 4.229 9.217-7.685 3.84 7.301 7.682-1.541 4.607-8.448.383-4.219 4.609-2.693-8.064-7.291-.006-10.752-6.527.381-14.59-7.681-3.84-6.529 14.209 4.229 7.297 1.915 11.521-11.515 3.834 2.683 11.139-2.302 4.229 2.302 11.132 3.456 1.539-.768 8.446z"/></g><g><path fill="#FFC" d="M314.525 527.837l-11.518-3.457-3.456-4.99-17.28 1.154-8.064-2.691-2.303.767-4.993-1.918h-7.679l1.536 6.527-9.601 1.918 4.229 9.217-7.685 3.84 7.301 7.682-1.541 4.607-8.448.383-4.219 4.609-2.693-8.064-7.291-.006-10.752-6.527.381-14.59-7.681-3.84-6.529 14.209h-1.152l-1.92-3.451-10.752-14.213-3.456-2.301 5.376-4.609 5.76-24.18v-.385l-1.918-4.22-6.144-.383-5.378-5.76-1.15-19.195 6.143-7.299-7.296-9.225 3.839-.379 9.216 5.373 14.208.768 9.6-5.375 6.912-6.145 1.536-6.529 4.99-.763 11.138 8.833 3.072 4.223 16.896 6.912h.766l5.762 7.293 3.456-2.687.383 4.22-4.606 5 6.143 2.69 4.608-1.533 2.688 2.683 3.456 1.533-6.91 10.366 8.446 3.845 9.6-3.457 4.608 9.6 10.366-.766 5.379-6.146 15.364 12.672 1.536 2.687-1.536 1.155-12.291 8.044.766 8.067-1.536 2.301-2.303 9.982z"/><path fill="none" stroke="#000" stroke-width=".425" stroke-miterlimit="3.864" d="M314.525 527.837l-11.518-3.457-3.456-4.99-17.28 1.154-8.064-2.691-2.303.767-4.993-1.918h-7.679l1.536 6.527-9.601 1.918 4.229 9.217-7.685 3.84 7.301 7.682-1.541 4.607-8.448.383-4.219 4.609-2.693-8.064-7.291-.006-10.752-6.527.381-14.59-7.681-3.84-6.529 14.209h-1.152l-1.92-3.451-10.752-14.213-3.456-2.301 5.376-4.609 5.76-24.18v-.385l-1.918-4.22-6.144-.383-5.378-5.76-1.15-19.195 6.143-7.299-7.296-9.225 3.839-.379 9.216 5.373 14.208.768 9.6-5.375 6.912-6.145 1.536-6.529 4.99-.763 11.138 8.833 3.072 4.223 16.896 6.912h.766l5.762 7.293 3.456-2.687.383 4.22-4.606 5 6.143 2.69 4.608-1.533 2.688 2.683 3.456 1.533-6.91 10.366 8.446 3.845 9.6-3.457 4.608 9.6 10.366-.766 5.379-6.146 15.364 12.672 1.536 2.687-1.536 1.155-12.291 8.044.766 8.067-1.536 2.301-2.303 9.982z"/></g><g><path fill="#FFC" d="M307.615 355.82l5.376 4.226 12.288-3.072 1.92-5.756 8.065-4.229-3.841-3.072-.005-6.527-3.84.384-4.987-14.211-7.68-2.306-1.915 3.074-4.228-.768-4.609 5.379h-4.223l-3.841-4.224-5.376 3.455 1.152 4.219 2.689 2.304 1.151 7.68-2.301 5.377-3.459 1.154 8.065 7.682h8.063z"/><path fill="none" stroke="#000" stroke-width=".425" stroke-miterlimit="3.864" d="M307.615 355.82l5.376 4.226 12.288-3.072 1.92-5.756 8.065-4.229-3.841-3.072-.005-6.527-3.84.384-4.987-14.211-7.68-2.306-1.915 3.074-4.228-.768-4.609 5.379h-4.223l-3.841-4.224-5.376 3.455 1.152 4.219 2.689 2.304 1.151 7.68-2.301 5.377-3.459 1.154 8.065 7.682h8.063z"/></g><g fill="#FFC"><path d="M256.926 361.19l3.073 2.307 4.608 1.54-1.919 4.993 3.071 4.606 4.992-2.307 2.303-6.908 6.909-2.303 2.69 3.455 5.38-7.681 8.446 6.145 10.753-1.919-1.153-6.529h-8.063l-8.065-7.682 3.459-1.154 2.301-5.377-1.151-7.68-2.689-2.304-1.152-4.219 5.376-3.455 3.841 4.224h4.223l4.609-5.379 4.228.768 1.915-3.074 7.68 2.306 4.987 14.211 3.84-.384.005 6.527 3.841 3.072-8.065 4.229-1.92 5.756-12.288 3.072-5.376-4.226 7.68 14.972 3.074-1.916 6.527 9.6h8.833l3.07-3.073 6.533-4.99 2.688 2.69 8.448-3.84 1.915 1.918 1.147-1.151-2.303-2.306 2.692-3.073-1.536-3.461-5.376 3.457 3.072-5.371-3.456-1.918 5.76-4.228 1.922-4.988 6.526-2.305-3.454-14.207-1.543-2.305 2.698-1.152-4.227-3.84 1.534-7.676 4.992 2.305 4.992-1.156-.384-6.528-9.6-23.425-.005-.387-6.907-4.99.38-8.83-9.98-1.153-.767 8.832-18.049-3.459-6.907 7.299v10.363l.377 1.539-5.374 2.301-10.368-2.301-2.688-4.992-6.144 6.145-9.984 1.539-1.536-.385-3.454-.385-3.837 9.6-5.381 3.068 3.072 12.672-8.063 7.301 1.535 8.062-6.527 7.297-8.065 4.608z"/><path d="M256.926 361.19l3.073 2.307 4.608 1.54-1.919 4.993 3.071 4.606 4.992-2.307 2.303-6.908 6.909-2.303 2.69 3.455 5.38-7.681 8.446 6.145 10.753-1.919-1.153-6.529h-8.063l-8.065-7.682 3.459-1.154 2.301-5.377-1.151-7.68-2.689-2.304-1.152-4.219 5.376-3.455 3.841 4.224h4.223l4.609-5.379 4.228.768 1.915-3.074 7.68 2.306 4.987 14.211 3.84-.384.005 6.527 3.841 3.072-8.065 4.229-1.92 5.756-12.288 3.072-5.376-4.226 7.68 14.972 3.074-1.916 6.527 9.6h8.833l3.07-3.073 6.533-4.99 2.688 2.69 8.448-3.84 1.915 1.918 1.147-1.151-2.303-2.306 2.692-3.073-1.536-3.461-5.376 3.457 3.072-5.371-3.456-1.918 5.76-4.228 1.922-4.988 6.526-2.305-3.454-14.207-1.543-2.305 2.698-1.152-4.227-3.84 1.534-7.676 4.992 2.305 4.992-1.156-.384-6.528-9.6-23.425-.005-.387-6.907-4.99.38-8.83-9.98-1.153-.767 8.832-18.049-3.459-6.907 7.299v10.363l.377 1.539-5.374 2.301-10.368-2.301-2.688-4.992-6.144 6.145-9.984 1.539-1.536-.385-3.454-.385-3.837 9.6-5.381 3.068 3.072 12.672-8.063 7.301 1.535 8.062-6.527 7.297-8.065 4.608z"/></g><g><path fill="#FFC" d="M256.926 361.19l3.073 2.307 4.608 1.54-1.919 4.993 3.071 4.606 4.992-2.307 2.303-6.908 6.909-2.303 2.69 3.455 5.38-7.681 8.446 6.145 10.753-1.919-1.153-6.529 1.536-.766 7.68 14.969 3.074-1.916 6.527 9.6h8.832l-1.156 2.3 4.612 3.459 4.228 3.073-1.925 6.912 6.529.767 5.376 4.229-5.376 6.142 1.535 2.299-10.752 11.524v1.922l-5.376 1.918-.77 8.826-.382 15.367-11.52-4.225-.384 3.457 2.688 14.975 2.688 2.687-3.072 2.688 2.688 7.297-3.455 6.908-5.379 6.15-10.366.766-4.608-9.6-9.6 3.457-8.446-3.845 6.91-10.366-3.456-1.533-2.688-2.683-4.608 1.533-6.143-2.69 4.606-5-.383-4.22-3.456 2.687-5.762-7.293h-.766l-16.896-6.912-3.072-4.223-11.136-8.833 5.378-1.534.382-6.144 3.458-1.922.767-7.678 7.298-13.826 2.301-12.287-4.606-3.076-10.754 7.685 3.072-10.369-1.918-7.682-8.45-4.605 4.613-3.066-1.536-4.23-5.764-3.073.767-.769 6.528 1.538 1.92-2.306 4.613 6.144z"/><path fill="none" stroke="#000" stroke-width=".425" stroke-miterlimit="3.864" d="M256.926 361.19l3.073 2.307 4.608 1.54-1.919 4.993 3.071 4.606 4.992-2.307 2.303-6.908 6.909-2.303 2.69 3.455 5.38-7.681 8.446 6.145 10.753-1.919-1.153-6.529 1.536-.766 7.68 14.969 3.074-1.916 6.527 9.6h8.832l-1.156 2.3 4.612 3.459 4.228 3.073-1.925 6.912 6.529.767 5.376 4.229-5.376 6.142 1.535 2.299-10.752 11.524v1.922l-5.376 1.918-.77 8.826-.382 15.367-11.52-4.225-.384 3.457 2.688 14.975 2.688 2.687-3.072 2.688 2.688 7.297-3.455 6.908-5.379 6.15-10.366.766-4.608-9.6-9.6 3.457-8.446-3.845 6.91-10.366-3.456-1.533-2.688-2.683-4.608 1.533-6.143-2.69 4.606-5-.383-4.22-3.456 2.687-5.762-7.293h-.766l-16.896-6.912-3.072-4.223-11.136-8.833 5.378-1.534.382-6.144 3.458-1.922.767-7.678 7.298-13.826 2.301-12.287-4.606-3.076-10.754 7.685 3.072-10.369-1.918-7.682-8.45-4.605 4.613-3.066-1.536-4.23-5.764-3.073.767-.769 6.528 1.538 1.92-2.306 4.613 6.144z"/></g><g><path fill="#FFC" d="M269.22 311.662l5.376-3.073 3.837-9.6 3.454.385 1.536.385 9.984-1.539 6.144-6.145 2.688 4.992 10.368 2.301 5.374-2.301-.378-1.539v-10.363l6.907-7.299 18.049 3.459.768-8.832 9.979 1.152.389-8.066 3.456-.389-.384-10.361-4.225-8.449-10.752 2.307-.384-.77 3.842-8.445-5.762-2.695 1.92-11.9-1.92-2.303-1.147-2.687-7.301 1.15-7.296-2.688-3.839-9.219h-12.289l-9.6-4.223-8.064-.387-3.845-2.301-6.907-3.455 1.152-2.689-3.072-1.533-3.456-1.153-1.152 2.303-13.407-10.367-5.029 2.687-5.371 5.762-8.064 6.143-3.84 3.072 1.536 8.062-6.144 12.672-1.152 1.922-1.92 8.447.384 4.992-1.152 5.76-1.92 10.369-2.69 4.606-2.301 3.457 1.535 5.76 11.521-1.536 7.296-7.681 3.072-.383-1.919 7.682 4.99 8.062 5.376 3.84 3.841-6.912 8.065 10.367v6.145l-5.373 8.066 1.917 7.678 7.299 7.298zm.01-.386l-12.688 4.609-9.983-1.156.384-6.141-14.208.77-6.145-6.912-8.447-5.379-11.904 1.92-1.152-2.301-3.838 3.072-.767 8.061 3.072 2.3 9.98 1.926 9.98 5.76-.765 2.688-13.439 4.992-2.305 9.98 3.842 8.836 12.676 7.295 11.898-5.377 2.688 8.832 4.612 6.145h14.207l-5.764-9.6 8.065-4.607 6.526-7.297-1.535-8.062 8.063-7.301-3.053-13.053z"/><path fill="none" stroke="#000" stroke-width=".425" stroke-miterlimit="3.864" d="M269.22 311.662l5.376-3.073 3.837-9.6 3.454.385 1.536.385 9.984-1.539 6.144-6.145 2.688 4.992 10.368 2.301 5.374-2.301-.378-1.539v-10.363l6.907-7.299 18.049 3.459.768-8.832 9.979 1.152.389-8.066 3.456-.389-.384-10.361-4.225-8.449-10.752 2.307-.384-.77 3.842-8.445-5.762-2.695 1.92-11.9-1.92-2.303-1.147-2.687-7.301 1.15-7.296-2.688-3.839-9.219h-12.289l-9.6-4.223-8.064-.387-3.845-2.301-6.907-3.455 1.152-2.689-3.072-1.533-3.456-1.153-1.152 2.303-13.407-10.367-5.029 2.687-5.371 5.762-8.064 6.143-3.84 3.072 1.536 8.062-6.144 12.672-1.152 1.922-1.92 8.447.384 4.992-1.152 5.76-1.92 10.369-2.69 4.606-2.301 3.457 1.535 5.76 11.521-1.536 7.296-7.681 3.072-.383-1.919 7.682 4.99 8.062 5.376 3.84 3.841-6.912 8.065 10.367v6.145l-5.373 8.066 1.917 7.678 7.299 7.298zm.01-.386l-12.688 4.609-9.983-1.156.384-6.141-14.208.77-6.145-6.912-8.447-5.379-11.904 1.92-1.152-2.301-3.838 3.072-.767 8.061 3.072 2.3 9.98 1.926 9.98 5.76-.765 2.688-13.439 4.992-2.305 9.98 3.842 8.836 12.676 7.295 11.898-5.377 2.688 8.832 4.612 6.145h14.207l-5.764-9.6 8.065-4.607 6.526-7.297-1.535-8.062 8.063-7.301-3.053-13.053z"/></g><g><path fill="#FFC" d="M221.6 263.276l1.535 5.761 11.52-1.536 7.296-7.681 3.072-.383-1.919 7.681 4.991 8.063 5.376 3.84 3.841-6.913 8.065 10.368v6.144l-5.373 8.067 1.917 7.677 7.299 6.908-12.677 4.614-9.983-1.157.383-6.14-14.208.769-6.144-6.912-8.447-5.379-11.905 1.92-1.152-2.3 2.689-3.073 1.15-1.922 4.993-18.433z"/><path fill="none" stroke="#000" stroke-width=".425" stroke-miterlimit="3.864" d="M221.6 263.276l1.535 5.761 11.52-1.536 7.296-7.681 3.072-.383-1.919 7.681 4.991 8.063 5.376 3.84 3.841-6.913 8.065 10.368v6.144l-5.373 8.067 1.917 7.677 7.299 6.908-12.677 4.614-9.983-1.157.383-6.14-14.208.769-6.144-6.912-8.447-5.379-11.905 1.92-1.152-2.3 2.689-3.073 1.15-1.922 4.993-18.433z"/></g><g><path fill="#FFC" d="M201.265 299.759l-.782 8.061 3.072 2.3 9.98 1.926 9.98 5.76-.765 2.688-13.439 4.992-2.305 9.98 3.842 8.836 12.676 7.295 11.898-5.377 2.688 8.832-1.92 2.307-6.528-1.539-.768.769 5.765 3.073 1.536 4.23-4.613 3.066 8.45 4.605 1.918 7.682-3.072 10.369 10.754-7.686 4.606 3.076-2.301 12.287-7.299 13.826-.767 7.678-3.458 1.922-.382 6.145-5.378 1.533-4.992.764-1.536 6.529-6.912 6.145-9.6 5.375-14.208-.768-9.216-5.373 6.144.381.384-2.301-3.84-1.156 2.305-4.602-3.072-2.688-6.145.383-1.151.385-14.208-11.137-6.912 2.303-2.684-1.918-7.301-6.527-2.688-.006-8.064-3.836-2.688.383.387-2.307-7.299-.768v-6.527l-7.296-4.988 2.688-13.057 15.744-12.293 8.064-.379 4.991-3.842 5.756-10.365 2.692-9.217 12.672-24.959 1.536-1.922 4.226-7.295 3.072-4.994 8.446-2.69 7.317-5.369zm-10.77 112.127l.769 1.535 1.151 3.455 4.608-.383 4.609.383 11.519-14.209.384-1.148-1.15-11.139-8.446-9.6 2.301-3.072-.386-6.527-2.303 1.922-4.607-3.458-5.376-7.682-10.368-8.062-6.912 6.145-5.376 10.367 1.538 2.305 5.763 1.536 6.145 10.751-3.072 3.457-11.525.383-7.68 5.762 21.504 6.912 6.912 3.07-.002 7.297z"/><path fill="none" stroke="#000" stroke-width=".425" stroke-miterlimit="3.864" d="M201.265 299.759l-.782 8.061 3.072 2.3 9.98 1.926 9.98 5.76-.765 2.688-13.439 4.992-2.305 9.98 3.842 8.836 12.676 7.295 11.898-5.377 2.688 8.832-1.92 2.307-6.528-1.539-.768.769 5.765 3.073 1.536 4.23-4.613 3.066 8.45 4.605 1.918 7.682-3.072 10.369 10.754-7.686 4.606 3.076-2.301 12.287-7.299 13.826-.767 7.678-3.458 1.922-.382 6.145-5.378 1.533-4.992.764-1.536 6.529-6.912 6.145-9.6 5.375-14.208-.768-9.216-5.373 6.144.381.384-2.301-3.84-1.156 2.305-4.602-3.072-2.688-6.145.383-1.151.385-14.208-11.137-6.912 2.303-2.684-1.918-7.301-6.527-2.688-.006-8.064-3.836-2.688.383.387-2.307-7.299-.768v-6.527l-7.296-4.988 2.688-13.057 15.744-12.293 8.064-.379 4.991-3.842 5.756-10.365 2.692-9.217 12.672-24.959 1.536-1.922 4.226-7.295 3.072-4.994 8.446-2.69 7.317-5.369zm-10.77 112.127l.769 1.535 1.151 3.455 4.608-.383 4.609.383 11.519-14.209.384-1.148-1.15-11.139-8.446-9.6 2.301-3.072-.386-6.527-2.303 1.922-4.607-3.458-5.376-7.682-10.368-8.062-6.912 6.145-5.376 10.367 1.538 2.305 5.763 1.536 6.145 10.751-3.072 3.457-11.525.383-7.68 5.762 21.504 6.912 6.912 3.07-.002 7.297z"/></g><g><path fill="#FFC" d="M190.495 411.886l.769 1.535 1.151 3.455 4.608-.383 4.61.383 11.518-14.209.384-1.148-1.15-11.139-8.447-9.6 2.301-3.072-.385-6.527-2.303 1.922-4.608-3.457-5.376-7.682-10.368-8.063-6.912 6.145-5.376 10.367 1.538 2.305 5.763 1.535 6.144 10.752-3.072 3.457-11.525.383-7.68 5.761 21.504 6.913 6.912 3.07z"/><path fill="none" stroke="#000" stroke-width=".425" stroke-miterlimit="3.864" d="M190.495 411.886l.769 1.535 1.151 3.455 4.608-.383 4.61.383 11.518-14.209.384-1.148-1.15-11.139-8.447-9.6 2.301-3.072-.385-6.527-2.303 1.922-4.608-3.457-5.376-7.682-10.368-8.063-6.912 6.145-5.376 10.367 1.538 2.305 5.763 1.535 6.144 10.752-3.072 3.457-11.525.383-7.68 5.761 21.504 6.913 6.912 3.07z"/></g><g><path fill="#FFC" d="M124.095 396.142l-17.312 19.966-11.904 6.528-2.304 4.22-9.216 18.047.768 24.578-4.224 7.299-5.759 3.84-4.609 21.121-1.92 4.588-3.84 12.676 3.072 19.58-1.535 4.605-.769.77-11.136 6.148-3.84 16.512.384.385 7.68-.77 4.992 8.834 2.689-.382.383-1.159 11.136 2.303 31.488 6.918-2.688 2.688 8.832 2.304 9.6 1.916 3.457-8.066 6.143-3.832 8.063 4.99 5.374-1.535 2.696 1.916 1.147 1.156 1.152 1.914 1.538 1.541 4.225-.383 9.218-6.912 3.449 3.073 4.61 6.527-1.535 7.678 8.833 9.601 4.22-.767 3.073-7.682 9.599 4.227 6.914-7.299.768-8.446-3.456-1.539-2.302-11.132 2.302-4.229-2.683-11.139 11.515-3.834-1.915-11.521-4.229-7.297h-1.152l-1.92-3.451-10.752-14.213-3.456-2.301 5.376-4.609 5.76-24.18v-.385l-1.918-4.22-6.144-.383-5.378-5.76-1.15-19.195 6.143-7.299-7.296-9.225 3.839-.379 6.144.381.384-2.301-3.84-1.156 2.305-4.601-3.073-2.688-6.144.383-1.152.385-14.208-11.137-6.912 2.303-2.683-1.918-7.301-6.528-2.688-.005-8.064-3.836-2.688.382.387-2.306-7.299-.768v-6.527z"/><path fill="none" stroke="#000" stroke-width=".425" stroke-miterlimit="3.864" d="M124.095 396.142l-17.312 19.966-11.904 6.528-2.304 4.22-9.216 18.047.768 24.578-4.224 7.299-5.759 3.84-4.609 21.121-1.92 4.588-3.84 12.676 3.072 19.58-1.535 4.605-.769.77-11.136 6.148-3.84 16.512.384.385 7.68-.77 4.992 8.834 2.689-.382.383-1.159 11.136 2.303 31.488 6.918-2.688 2.688 8.832 2.304 9.6 1.916 3.457-8.066 6.143-3.832 8.063 4.99 5.374-1.535 2.696 1.916 1.147 1.156 1.152 1.914 1.538 1.541 4.225-.383 9.218-6.912 3.449 3.073 4.61 6.527-1.535 7.678 8.833 9.601 4.22-.767 3.073-7.682 9.599 4.227 6.914-7.299.768-8.446-3.456-1.539-2.302-11.132 2.302-4.229-2.683-11.139 11.515-3.834-1.915-11.521-4.229-7.297h-1.152l-1.92-3.451-10.752-14.213-3.456-2.301 5.376-4.609 5.76-24.18v-.385l-1.918-4.22-6.144-.383-5.378-5.76-1.15-19.195 6.143-7.299-7.296-9.225 3.839-.379 6.144.381.384-2.301-3.84-1.156 2.305-4.601-3.073-2.688-6.144.383-1.152.385-14.208-11.137-6.912 2.303-2.683-1.918-7.301-6.528-2.688-.005-8.064-3.836-2.688.382.387-2.306-7.299-.768v-6.527z"/></g><g><path fill="#FFC" d="M253.502 752.476l11.494-2.688 4.608-8.443 9.979 2.301 7.296-20.354-8.064-8.447 1.533-2.688-5.374-6.912-.762-15.744 5.371-2.689 5.376 2.3 2.305-5.365 4.99-5.768-1.535-5.759 2.688-2.686-8.064-6.148 3.461-6.905-1.156-2.691-1.922-1.154 1.153-2.303-8.064-9.215-4.608.768-9.983-16.512 3.456-4.609-9.601-14.592-9.211-1.152-1.162-3.84-9.98-1.151 1.153 5.371-12.288-1.916-12.67 3.073-13.829-1.922-.767-1.533-9.599-4.227-3.073 7.682-4.22.767-8.833-9.601-9.985 6.912v9.217l-4.223 3.072 2.687 5.762 3.072 4.605-1.152 7.299 5.378 3.455-9.218.767-5.376 3.834 1.539 12.672 4.99 6.912v.389l.383.766 3.073 2.689 9.983 3.072 1.153 3.457 6.911-4.99 21.89 2.301 2.691 3.455-1.925 5.379-11.136 5.76 10.752.767.384 3.073 23.425 15.359 3.456 8.449 3.839 2.688-.383 8.062 8.446 2.69v6.527h8.446l5.763 14.979z"/><path fill="none" stroke="#000" stroke-width=".425" stroke-miterlimit="3.864" d="M253.502 752.476l11.494-2.688 4.608-8.443 9.979 2.301 7.296-20.354-8.064-8.447 1.533-2.688-5.374-6.912-.762-15.744 5.371-2.689 5.376 2.3 2.305-5.365 4.99-5.768-1.535-5.759 2.688-2.686-8.064-6.148 3.461-6.905-1.156-2.691-1.922-1.154 1.153-2.303-8.064-9.215-4.608.768-9.983-16.512 3.456-4.609-9.601-14.592-9.211-1.152-1.162-3.84-9.98-1.151 1.153 5.371-12.288-1.916-12.67 3.073-13.829-1.922-.767-1.533-9.599-4.227-3.073 7.682-4.22.767-8.833-9.601-9.985 6.912v9.217l-4.223 3.072 2.687 5.762 3.072 4.605-1.152 7.299 5.378 3.455-9.218.767-5.376 3.834 1.539 12.672 4.99 6.912v.389l.383.766 3.073 2.689 9.983 3.072 1.153 3.457 6.911-4.99 21.89 2.301 2.691 3.455-1.925 5.379-11.136 5.76 10.752.767.384 3.073 23.425 15.359 3.456 8.449 3.839 2.688-.383 8.062 8.446 2.69v6.527h8.446l5.763 14.979z"/></g><g><path fill="#FFC" d="M49.599 566.62l-2.335 8.449-9.217 14.207-5.76 9.217-4.224 5.373-.384 7.682-5.76 7.297 9.216 3.842 6.528-2.307 14.592.767.384 2.301 12.673-2.297 1.535 1.918v8.832l8.064.385 8.448 6.145 6.528 6.527 3.456-1.537 5.376 1.152 6.144-.767 1.536 3.457 1.537-6.914 22.655 1.918 8.067 1.154 12.285 8.064 6.911 10.75 3.453.385.005-.389-4.99-6.912-1.539-12.672 5.376-3.834 9.218-.767-5.378-3.455 1.152-7.299-3.072-4.605-2.687-5.762 4.223-3.072v-9.217l9.985-6.912 1.535-7.678-4.61-6.527-3.449-3.073-9.218 6.912-4.225.383-1.538-1.541-1.152-1.914-1.147-1.156-2.696-1.916-5.374 1.535-8.063-4.99-6.143 3.832-3.457 8.066-9.6-1.916-8.832-2.304 2.688-2.688-31.488-6.918-11.136-2.303-.383 1.159-2.689.382-4.992-8.834-7.68.77z"/><path fill="none" stroke="#000" stroke-width=".425" stroke-miterlimit="3.864" d="M49.599 566.62l-2.335 8.449-9.217 14.207-5.76 9.217-4.224 5.373-.384 7.682-5.76 7.297 9.216 3.842 6.528-2.307 14.592.767.384 2.301 12.673-2.297 1.535 1.918v8.832l8.064.385 8.448 6.145 6.528 6.527 3.456-1.537 5.376 1.152 6.144-.767 1.536 3.457 1.537-6.914 22.655 1.918 8.067 1.154 12.285 8.064 6.911 10.75 3.453.385.005-.389-4.99-6.912-1.539-12.672 5.376-3.834 9.218-.767-5.378-3.455 1.152-7.299-3.072-4.605-2.687-5.762 4.223-3.072v-9.217l9.985-6.912 1.535-7.678-4.61-6.527-3.449-3.073-9.218 6.912-4.225.383-1.538-1.541-1.152-1.914-1.147-1.156-2.696-1.916-5.374 1.535-8.063-4.99-6.143 3.832-3.457 8.066-9.6-1.916-8.832-2.304 2.688-2.688-31.488-6.918-11.136-2.303-.383 1.159-2.689.382-4.992-8.834-7.68.77z"/></g><g><path fill="#FFC" d="M83.359 638.431l6.528 6.527 5.377 13.822 6.527 2.305 5.376-1.92 1.152.383v9.98l-3.072 8.834 1.536 9.987-3.84 8.443-6.144 3.844-2.688-.004-1.536-2.303-1.152-5.371 4.608-8.834-6.144-1.15-1.92-4.61-2.688-3.84-6.912 2.305-4.608-1.152-5.376-3.84-8.064-.768-14.976 7.295-3.84-3.072 4.225-3.072.383-7.678 5.376-4.613 2.688-9.981 6.144-1.156 8.832 9.221 4.608-6.147 2.688-9.98 4.608-4.229z"/><path fill="none" stroke="#000" stroke-width=".425" stroke-miterlimit="3.864" d="M83.359 638.431l6.528 6.527 5.377 13.822 6.527 2.305 5.376-1.92 1.152.383v9.98l-3.072 8.834 1.536 9.987-3.84 8.443-6.144 3.844-2.688-.004-1.536-2.303-1.152-5.371 4.608-8.834-6.144-1.15-1.92-4.61-2.688-3.84-6.912 2.305-4.608-1.152-5.376-3.84-8.064-.768-14.976 7.295-3.84-3.072 4.225-3.072.383-7.678 5.376-4.613 2.688-9.981 6.144-1.156 8.832 9.221 4.608-6.147 2.688-9.98 4.608-4.229z"/></g><g><path fill="#FFC" d="M21.935 618.845l-1.167 9.217-1.921 21.119 11.52 16.9 1.153 6.908-2.305 4.99-8.064 9.985-.383 9.599-.385 2.69-6.528 6.912 1.152 13.436-8.832 22.275 3.456 14.971 1.152.006 6.144-11.524 10.752.774.384 6.527 11.136-7.301 2.304 2.303 7.681-2.303 4.991-2.687 6.912-1.149h6.912l1.92-1.535-1.151-3.457 6.143-.768 8.065-6.142 3.071-1.539-.768-3.455 3.456-.772 5.76-3.84 2.689-6.91.767-4.222 23.424 5.376 8.064 1.151.384 8.449 1.153-.767 8.832-5.375 5.371 4.22 4.617 15.364 6.524 1.919 7.684 11.135 6.526-1.152 2.303 10.752v.383l.767-1.534 3.839-4.615 3.457-14.974-3.073-6.909 6.144-.767-1.534-3.072 7.297-1.918 3.074-4.995 28.411 4.606 14.593-4.223.383-8.062-3.839-2.688-3.456-8.449-23.425-15.359-.384-3.073-10.752-.767 11.136-5.76 1.925-5.379-2.691-3.455-21.89-2.301-6.911 4.99-1.153-3.457-9.983-3.072-3.073-2.689-.388-.766-3.453-.385-6.911-10.75-12.285-8.064-8.067-1.154-22.655-1.918-1.537 6.914-1.536-3.457-6.144.767-5.376-1.152-3.456 1.537 5.377 13.822 6.527 2.305 5.376-1.92 1.152.383v9.98l-3.072 8.834 1.536 9.987-3.84 8.443-6.144 3.844-2.688-.004-1.536-2.303-1.152-5.371 4.608-8.834-6.144-1.15-1.92-4.61-2.688-3.84-6.912 2.305-4.608-1.152-5.376-3.84-8.064-.768-14.976 7.295-3.84-3.072 4.225-3.072.383-7.678 5.376-4.613 2.688-9.981 6.144-1.156 8.832 9.221 4.608-6.147 2.688-9.98 4.608-4.229 2.304.774-8.448-6.145-8.064-.385v-8.832l-1.535-1.918-12.673 2.297-.384-2.301-14.592-.767-6.528 2.307z"/><path fill="none" stroke="#000" stroke-width=".425" stroke-miterlimit="3.864" d="M21.935 618.845l-1.167 9.217-1.921 21.119 11.52 16.9 1.153 6.908-2.305 4.99-8.064 9.985-.383 9.599-.385 2.69-6.528 6.912 1.152 13.436-8.832 22.275 3.456 14.971 1.152.006 6.144-11.524 10.752.774.384 6.527 11.136-7.301 2.304 2.303 7.681-2.303 4.991-2.687 6.912-1.149h6.912l1.92-1.535-1.151-3.457 6.143-.768 8.065-6.142 3.071-1.539-.768-3.455 3.456-.772 5.76-3.84 2.689-6.91.767-4.222 23.424 5.376 8.064 1.151.384 8.449 1.153-.767 8.832-5.375 5.371 4.22 4.617 15.364 6.524 1.919 7.684 11.135 6.526-1.152 2.303 10.752v.383l.767-1.534 3.839-4.615 3.457-14.974-3.073-6.909 6.144-.767-1.534-3.072 7.297-1.918 3.074-4.995 28.411 4.606 14.593-4.223.383-8.062-3.839-2.688-3.456-8.449-23.425-15.359-.384-3.073-10.752-.767 11.136-5.76 1.925-5.379-2.691-3.455-21.89-2.301-6.911 4.99-1.153-3.457-9.983-3.072-3.073-2.689-.388-.766-3.453-.385-6.911-10.75-12.285-8.064-8.067-1.154-22.655-1.918-1.537 6.914-1.536-3.457-6.144.767-5.376-1.152-3.456 1.537 5.377 13.822 6.527 2.305 5.376-1.92 1.152.383v9.98l-3.072 8.834 1.536 9.987-3.84 8.443-6.144 3.844-2.688-.004-1.536-2.303-1.152-5.371 4.608-8.834-6.144-1.15-1.92-4.61-2.688-3.84-6.912 2.305-4.608-1.152-5.376-3.84-8.064-.768-14.976 7.295-3.84-3.072 4.225-3.072.383-7.678 5.376-4.613 2.688-9.981 6.144-1.156 8.832 9.221 4.608-6.147 2.688-9.98 4.608-4.229 2.304.774-8.448-6.145-8.064-.385v-8.832l-1.535-1.918-12.673 2.297-.384-2.301-14.592-.767-6.528 2.307z"/></g><g><path fill="#FFC" d="M96.062 819.677l2.657 3.453.385 7.683 2.687 3.458 6.912 1.533 3.456-5.373 9.985 1.148 9.599 1.541 7.68-4.224 6.528 2.3 4.609-8.832 9.983-4.605 3.844.76 6.908-6.905 5.376-2.695 3.456 5.768 6.909-3.458 10.371 2.688 1.153 8.062 6.911 6.145 6.911.385 19.201 1.922 14.213-3.84 1.915-1.539-1.151-2.301-5.761 1.154-2.304-6.912 7.296-4.228 13.441-6.145 1.151 1.537 6.912 4.608-.766 6.527 3.836.768 5.764-6.53-2.306-10.75 1.92 1.155 3.456.767 3.072-4.609-6.528-8.447-17.664 3.072-.384 6.523-13.824-1.922-.767 4.616-15.361-11.139-1.536-3.072 3.072-3.073-3.456-5.759 3.456-4.225 7.293-4.605 7.299-15.36 9.6-4.226 4.992-5.373-5.763-14.979h-8.446v-6.527l-8.446-2.694-14.593 4.227-28.411-4.606-3.074 4.995-7.297 1.918 1.534 3.072-6.144.767 3.073 6.909-3.457 14.974-3.839 4.615-.767 1.534v-.383l-2.303-10.752-6.526 1.152-7.684-11.135-6.524-1.919-4.617-15.364-5.371-4.22-8.832 5.375-1.153.767-4.992 7.68.384 11.137.385 6.527-8.832 5.375 1.151 5.377-4.607 5.377 5.759 6.912-3.456 8.058-5.76 4.229-8.832 4.607-.768 5.764-9.6 1.531.384 2.69.769 8.064 5.759 5.76z"/><path fill="none" stroke="#000" stroke-width=".425" stroke-miterlimit="3.864" d="M96.062 819.677l2.657 3.453.385 7.683 2.687 3.458 6.912 1.533 3.456-5.373 9.985 1.148 9.599 1.541 7.68-4.224 6.528 2.3 4.609-8.832 9.983-4.605 3.844.76 6.908-6.905 5.376-2.695 3.456 5.768 6.909-3.458 10.371 2.688 1.153 8.062 6.911 6.145 6.911.385 19.201 1.922 14.213-3.84 1.915-1.539-1.151-2.301-5.761 1.154-2.304-6.912 7.296-4.228 13.441-6.145 1.151 1.537 6.912 4.608-.766 6.527 3.836.768 5.764-6.53-2.306-10.75 1.92 1.155 3.456.767 3.072-4.609-6.528-8.447-17.664 3.072-.384 6.523-13.824-1.922-.767 4.616-15.361-11.139-1.536-3.072 3.072-3.073-3.456-5.759 3.456-4.225 7.293-4.605 7.299-15.36 9.6-4.226 4.992-5.373-5.763-14.979h-8.446v-6.527l-8.446-2.694-14.593 4.227-28.411-4.606-3.074 4.995-7.297 1.918 1.534 3.072-6.144.767 3.073 6.909-3.457 14.974-3.839 4.615-.767 1.534v-.383l-2.303-10.752-6.526 1.152-7.684-11.135-6.524-1.919-4.617-15.364-5.371-4.22-8.832 5.375-1.153.767-4.992 7.68.384 11.137.385 6.527-8.832 5.375 1.151 5.377-4.607 5.377 5.759 6.912-3.456 8.058-5.76 4.229-8.832 4.607-.768 5.764-9.6 1.531.384 2.69.769 8.064 5.759 5.76z"/></g><g><path fill="#FFC" d="M9.662 757.847l-1.183 8.07-7.295 6.912 1.535 15.361 10.752 11.518 4.992 16.129 3.84 4.609 3.841.383 7.679-6.912 8.448.385-2.688 3.84 4.225 5.371-13.441 3.845 2.688 4.221 7.68 6.529 11.52-3.457 18.433-4.99 6.143-10.754h3.456l15.744.77 1.536-5.76-5.759-5.76-.769-8.064-.384-2.69 9.6-1.531.768-5.764 8.832-4.607 5.76-4.229 3.456-8.058-5.759-6.912 4.607-5.377-1.151-5.377 8.832-5.375-.385-6.527-.384-11.137 4.992-7.68-.384-8.449-8.064-1.151-23.424-5.376-.767 4.222-2.689 6.91-5.76 3.84-3.456.772.768 3.455-3.071 1.539-8.065 6.142-6.143.768 1.151 3.457-1.92 1.535h-6.912l-6.912 1.149-4.991 2.687-7.681 2.303-2.304-2.303-11.136 7.301-.384-6.527-10.752-.774-6.144 11.524z"/><path fill="none" stroke="#000" stroke-width=".425" stroke-miterlimit="3.864" d="M9.662 757.847l-1.183 8.07-7.295 6.912 1.535 15.361 10.752 11.518 4.992 16.129 3.84 4.609 3.841.383 7.679-6.912 8.448.385-2.688 3.84 4.225 5.371-13.441 3.845 2.688 4.221 7.68 6.529 11.52-3.457 18.433-4.99 6.143-10.754h3.456l15.744.77 1.536-5.76-5.759-5.76-.769-8.064-.384-2.69 9.6-1.531.768-5.764 8.832-4.607 5.76-4.229 3.456-8.058-5.759-6.912 4.607-5.377-1.151-5.377 8.832-5.375-.385-6.527-.384-11.137 4.992-7.68-.384-8.449-8.064-1.151-23.424-5.376-.767 4.222-2.689 6.91-5.76 3.84-3.456.772.768 3.455-3.071 1.539-8.065 6.142-6.143.768 1.151 3.457-1.92 1.535h-6.912l-6.912 1.149-4.991 2.687-7.681 2.303-2.304-2.303-11.136 7.301-.384-6.527-10.752-.774-6.144 11.524z"/></g><path fill="none" stroke="#000" stroke-width=".85" stroke-miterlimit="3.864" d="M261.022 316.698l2.568 5.04 3.091-9.51M273.181 305.026l-2.568-5.04-3.091 9.511"/><g fill="none" stroke="#000" stroke-width="1.417" stroke-miterlimit="3.864"><path d="M124.063 396.142l7.296 4.988v6.527l7.299.768-.387 2.306 2.688-.382 8.064 3.836 2.688.005 7.301 6.528 2.683 1.918 6.912-2.303 14.208 11.137 1.152-.385 6.144-.383 3.073 2.688-2.305 4.601 3.84 1.156-.384 2.301-6.144-.381-3.839.379 7.296 9.225-6.143 7.299 1.15 19.195 5.378 5.76 6.144.383 1.918 4.22v.385l-5.76 24.18-5.376 4.609 3.456 2.301 10.752 14.213 1.92 3.451h1.152l6.529-14.209 7.681 3.84-.381 14.59 10.752 6.527 7.291.006 2.693 8.064 4.219-4.609 8.448-.383 1.541-4.607-7.301-7.682 7.685-3.84-4.229-9.217 9.601-1.918-1.536-6.527h7.679l4.993 1.918 2.303-.767 8.064 2.691 17.28-1.154 3.456 4.99 11.518 3.457-1.534 4.609.767 8.063-10.365 5.762 6.142 2.687v2.301l-14.592 5.763-3.072 2.303 8.448 4.61-4.613 4.609 8.07 4.221 3.073 9.599-1.918 3.84 5.369 5.76 4.995 2.307-6.527 7.292 8.065 8.067 3.071-1.154 1.535-6.913 5.765-.767 5.368 1.533 3.459 3.455.768 8.069h2.301l5.379 3.839.384 1.537 4.608 10.75 2.688.385 4.992-1.535 6.144 2.69 3.84-1.54 2.301 6.53 3.456 1.537 4.995 6.144-2.301 4.606-9.982.767-1.92-1.917-1.157 1.146 5.377 10.367 4.992-.767 3.456.773 4.991 4.992-1.535 8.447 3.456 3.454-2.305 4.228v13.822l11.904-1.15 3.073 3.072-1.537 4.223 9.216 4.609 11.136 5.758.384 3.455-.766 4.612-6.53 4.605 1.92 4.994-6.528 1.918-4.608-6.146h-3.84l-.379 3.455 3.451 13.828-2.688 1.535M486.56 48.62l9.599 3.073 6.144 4.994 8.821 1.533 7.296-3.84 2.296 10.367-5.371 9.217-4.229-1.918-3.435 5.375 4.206 11.904 1.154 7.301 5.374 3.07-9.966 10.367-1.922-.771 3.453 8.067.384 15.744 7.667-3.84 11.52 3.455 3.456 4.99-8.447 3.84 3.071 4.994-2.688 9.977-15.728.388-7.68-3.836-2.687-4.226-4.611 2.302-.761 9.6-5.768 1.922-5.373-2.307-5.376.772-11.52-9.221-4.608 5.764 1.148 5.76-4.988 3.455-1.92 6.529-4.228-.385-1.916 9.217-4.991 3.072-8.834-9.982-4.223-.77-6.144-1.152-2.303 7.297-.767 13.439-8.835.385.001-1.922-11.519-.773-4.607-5.371-6.528-1.918 4.99 7.678-8.063 6.144-3.073-1.535 1.151 5.761-9.983 10.368-1.536 3.072-16.128 3.84.384 6.144-7.685 3.84-10.752-7.3 1.925 2.306-1.92 11.9 5.762 2.696-3.842 8.445.384.77 10.752-2.307 4.225 8.449.383 10.361-3.456.389-.383 8.067-.38 8.833 6.902 4.987.005.387 9.6 23.425.384 6.528-4.992 1.156-4.992-2.305-1.534 7.676 4.227 3.84-2.698 1.152 1.543 2.305 3.454 14.207-6.526 2.305-1.922 4.988-5.76 4.228 3.456 1.918-3.072 5.371 5.376-3.457 1.536 3.461-2.692 3.073 2.303 2.306-1.147 1.151-1.915-1.918-8.448 3.84-2.688-2.69-6.533 4.99-3.071 3.073-1.156 2.3 4.612 3.459 4.228 3.073-1.925 6.912 6.529.767 5.376 4.229-5.376 6.142 1.535 2.299-10.752 11.524v1.922l-5.376 1.918-.77 8.826-.382 15.367-11.52-4.225-.384 3.457 2.688 14.975 2.688 2.687-3.072 2.688 2.688 7.297 3.84.765 3.456 4.227 9.98 4.607 1.542-.384 2.691-7.678-1.157-6.912 8.448-1.155 1.153-7.296 15.743-9.981 6.908-.767 6.527.767 7.301 4.606 1.92-4.225 3.072-2.303 5.76 1.533 4.608-11.906 4.993 2.696 3.839 4.99 4.608-1.153h7.68l1.152 2.694 4.992.379-2.304 3.07 2.693 2.691-.005.383 3.455 5.377 3.073-3.072 3.835.385 1.158 1.918 8.831 1.152 3.073-4.609h3.839l1.152 2.687-1.92 3.457.768 3.072 2.301 4.995 3.075-3.073 9.6 5.371 3.84 1.541 3.456-3.076 2.688 1.155 8.064-3.84 6.912 7.3-1.536 4.985 4.225-2.692 18.799-6.527h4.226l.766.774h11.52l6.528 6.527 8.832-6.145v-1.918l6.528-1.537.384-3.072v-1.535l1.918-2.305h.386l21.504 1.537 13.437-11.136 6.526-11.903 11.526-3.842 6.528 6.909-1.153 6.912 18.813-3.836 4.228 7.297 5.372.767 5.763 4.223 1.536.765 1.153 5.374 7.296.384 2.69 1.159 1.533-2.301 3.072 3.068 3.842-3.455.766 6.527 6.144 9.985 3.838 1.535M323.359 474.093l-3.455 6.908 15.364 12.676 1.536 2.687-1.536 1.155-12.291 8.044.766 8.067-1.536 2.301-2.303 9.982-5.374 1.918"/></g><g><path fill="none" stroke="#000" stroke-width="2.268" stroke-miterlimit="3.864" d="M410.543 796.253l4.606 5.983 5.762-1.38M305.312 785.118l-4.225-9.217-9.216.768 3.072 9.6z"/><path fill="none" stroke="#000" stroke-width="2.268" stroke-miterlimit="3.864" d="M528.78 827.743l4.61.381 1.922-3.455 3.839.768-.764-4.995 13.053-2.3 3.068 3.072 6.147-1.922 1.92-2.688 3.456 4.225 12.672-14.982-1.534-1.534 10.366-9.601 11.52-.383 3.453 4.229 6.528 1.535 3.459 1.92h8.834l7.294-9.983 4.992-1.537 11.136 1.537 4.225 15.36 4.612-9.6 8.832-4.227 2.303-10.367-5.767-5.765-.767-6.912 1.154-5.754-13.056-11.52 6.528-6.527h6.144l4.992-4.225-1.152-3.072-5.379-7.297-2.301-9.6-4.606 3.84-1.537-4.605h3.839l3.456-3.842.77-14.209v-1.15l.382-6.912-6.532-7.297 1.151-4.991 4.229-1.539 2.304-.382 1.154-10.75 3.456-4.612.383-2.301-.769-1.539 2.305-14.589-.383-11.137-.002-1.535-.768-3.455-6.915-8.067-.381-.765-3.456-11.907-2.686-12.672.383-2.687v-.385l-5.375-10.75.766-7.297-1.152-6.914.766-3.455-6.908-8.834-6.914-13.433-3.072-3.077-5.376-5.375-1.535-5.759 17.663-18.817-2.304-9.967 6.145.766 11.516-8.062 7.683 7.679 8.443-1.541 8.834-8.832 3.84-2.297 1.925-.004 3.839-1.154-1.153-3.068-.768-1.92-.77-1.92 8.451-3.457 3.456 1.154 8.447-2.31-2.688-5.371 1.534-4.991 1.919-2.306-2.3-9.6-2.305-2.693v-5.373l5.376-.381.764-1.535-6.907-9.6-8.835-8.449-.766-8.451 3.455-2.301.005-3.455 11.518 4.607.766-2.303h4.225l3.456 11.135 2.687 1.92 6.912-4.992.769-7.68 3.836-4.224 5.765-.385 1.912 2.687-6.911 11.907 13.445-3.84 6.527-7.297-1.154-2.303-8.063-12.289 2.307-2.687-9.988-3.075-1.149-11.519 1.922-1.152.385-8.063 3.07-2.687 1.535-1.153v-8.062l-5.377-1.922.772-3.072 5.759-3.073v-7.677l-1.535-1.159 1.535-4.986-7.297-6.523 7.297-2.694-2.306-11.135-6.144-5.377-.383-3.455-3.457.766-.388-1.15 2.692-3.461-8.064-3.455-2.302-5.756-4.608-.385-.767-8.832-4.226-1.537-3.073 2.687-1.152-1.15-14.208-5.377-.384-6.527 1.92-.768-3.456-11.521-11.52-1.534 13.056-11.906-2.304-7.295-4.223-3.455-12.288-9.217-2.305 1.536-10.367-6.528-.385-4.226-1.92-14.975 2.305-1.15-3.456-3.074 1.92-6.149 2.687 4.609 4.608-7.297-4.608-5.375-.768-3.453.381-8.445-2.3 1.151-3.841-2.688 1.154-19.584 10.749-1.535 1.153-2.688-2.302-1.921-3.073-8.837-5.379-18.043-4.225-4.993 2.303-5.762-4.993-13.827-1.531-1.913-5.374-.383-5.375 5.761 1.538 1.54 3.833 2.298-10.366 13.055-11.136.77.768-1.153-4.221.383h-7.299l-3.453-3.455 2.301-6.145.384-10.753-1.154-5.76-5.374-3.071 3.072-7.296-2.307-1.536-6.525 2.69-3.84 11.902-11.52-3.457 1.92-1.918 1.92-1.158 3.072-3.84 7.68-14.207-1.536-4.994-9.211-13.434-1.153-1.921 3.837-5.76-.383-.768-3.456-9.599-6.148-4.223.386-3.84-11.136 7.678-6.144 8.834-3.841-14.979-8.443 3.842v8.445l-3.456 1.918-8.834-5.371 1.534-5.381 2.304-2.303.382-9.982-1.148-1.918 3.067-3.84-.376-9.603-21.891 4.605 2.302 10.762-1.92 1.918-11.518-7.297-1.522-8.455-6.144-.377-4.612 6.529-3.835-1.154-3.073-5.76-6.528 3.834-4.223 2.696-3.073-2.696-4.224 1.926-10.751 1.535 1.915 9.219-6.524 1.149 6.528 3.457 6.913-.385 5.376 1.539-7.301 3.455 3.073 5.76 6.147-.383.768-9.983 5.376 3.838 3.072 5.375v6.143l-3.456 4.226-2.303 2.686 3.456 3.072 1.919 1.922-3.072 4.99-5.759 1.155-3.836-5.379-5.763 4.609-8.063-3.84-1.539-.384-4.223 6.144-3.841 1.537-3.071 15.355h-2.301l-2.303 4.612h-2.309l-1.536.768-7.301 1.921-22.267-1.921-.766 6.144-6.53-5.375-.768 4.613 3.84 6.901 6.908 4.228 2.303 6.527-4.607 2.301-5.37-6.14-.384.385-4.231-1.919-1.531 2.682-4.223 9.221h-6.529l-6.912-4.609-4.224 3.074-4.227-1.541 1.542 3.839-6.527 9.217 4.604 5.764-6.528 4.609-5.376-.767-1.92 7.68-3.07 3.07-8.069 7.674-8.445-.768-3.454-5.371 8.445-6.527-.767-10.372-1.919-2.3 6.911-7.682 3.461 7.297 8.445-7.678-.003-6.912-10.367.768-6.528 2.301-2.302-2.684.766-8.451-4.608.385-3.456 3.072-4.226-1.536-1.902 1.151-15.379-7.678 1.153-4.609-3.454-3.072-1.92-11.903 3.84-4.609-1.152-9.217-23.424 4.61-.767 1.535-1.153.765.769 4.611 2.303-.767 3.84 18.047-9.599 9.6-9.601-3.073-11.136-17.279-7.3-6.151-9.964 1.928-.4 4.225-1.92 5.76 1.92 5.759 4.609 18.428-.767 15.362 7.682 3.07 8.06 2.308-2.303 9.983-.383 1.15v2.303l-7.682 5.375-.384 3.457 2.692 1.533 6.14-5.375-1.92 11.908-5.759 6.145-3.456 3.07-.769 5.768 7.301 4.223.764 5.755-4.998 2.688-5.371 5.761-8.064 6.143-3.84 3.072 1.536 8.063-6.143 12.672-1.153 1.922-1.92 8.447.384 4.992-1.152 5.76-1.92 10.369-2.691 4.606-2.3 3.456-7.681 9.983-4.993 18.433-1.15 1.922-2.689 3.073-3.838 3.072-7.298 5.371-8.446 2.69-3.072 4.993-4.226 7.295-1.536 1.922-12.672 24.959-2.692 9.217-5.756 10.365-4.991 3.842-8.065.379-15.744 12.293-2.688 13.057-17.28 19.966-11.904 6.528-2.304 4.22-9.216 18.047.768 24.578-4.224 7.299-5.759 3.84-4.609 21.121-1.92 4.588-3.84 12.676 3.072 19.58-1.535 4.605-.769.77-11.136 6.148-3.84 16.512-2.303 8.449-9.217 14.207-5.76 9.217-4.224 5.373-.384 7.682-5.76 7.297-1.151 9.217-1.921 21.119 11.52 16.9 1.153 6.908-2.305 4.99-8.064 9.985-.383 9.599-.385 2.69-6.528 6.912 1.152 13.436-8.832 22.275 3.456 14.971-1.152 8.07-7.295 6.912 1.535 15.361 10.752 11.518 4.992 16.129 3.84 4.609 3.841.383 7.679-6.912 8.448.385-2.688 3.84 4.225 5.371-13.441 3.845 2.688 4.221 7.68 6.529 11.52-3.457 18.433-4.99 6.143-10.754h3.456l15.744.77 2.688 3.453.385 7.683 2.687 3.458 6.912 1.533 3.456-5.373 9.985 1.148 9.599 1.541 7.68-4.224 6.528 2.3 4.609-8.832 9.983-4.605 3.844.76 6.908-6.905 5.376-2.695 3.456 5.768 6.909-3.458 10.371 2.688 1.153 8.062 6.911 6.145 6.911.385 19.201 1.922 14.213-3.84 1.915-1.539-1.151-2.301-5.761 1.154-2.304-6.912 7.296-4.228 13.441-6.145 1.151 1.537 6.912 4.608-.766 6.527 3.836.768 5.764-6.53-2.306-10.75 1.92 1.155 3.456.767 3.072-4.609-6.528-8.447-17.664 3.072-.384 6.523-13.824-1.922-.767 4.616-15.361-11.139-1.536-3.072 3.072-3.073-3.456-5.759 3.456-4.225 7.293-4.605 7.299-15.36 9.6-4.226 11.525-2.688 4.608-8.443 9.979 2.301 3.456 15.359 4.994-2.688 3.454-10.754 6.912 8.45 6.144 3.457 6.528 4.605-7.3 8.444 6.143 5.378-2.294 8.836 17.28 6.53 3.456-6.53-4.226-4.224-5.763-1.151.768-4.224 8.832-7.297 3.072 9.215 7.301 3.84 5.756-.383.383.383-5.375 2.3-.383 6.151 6.528 9.978 5.374 2.694 14.977-5.377"/><path fill="#B3DEF3" d="M420.927 800.856l-2.528-7.37-7.856 2.767-7.144.233-20.25-1-17.549 1.15 13.434-12.287-4.223-4.991-4.993-.767-12.672-8.067 8.834-1.535 16.899 2.688 24.574 11.519 12.29 6.147 7.906 2.393-6.753-21.212-16.897-10.755-4.992-2.303-14.203-13.82 2.3-4.61 8.063 3.84 12.288 8.832 23.809 14.979 5.376 11.517 13.439 12.289 3.072 1.92 6.912 3.072 6.144 3.073 9.601-2.692 17.279 6.526 8.064.382 4.224 5 4.608 8.063.384 4.609 6.125 6.139 12.293 1.156 1.152 3.072 5.758 2.305 5.376 4.606 15.744 2.695 4.229 6.516 3.839 1.919 2.304 5.374-6.148 7.298-13.053-2.3-9.599 2.687-19.2.385-3.84 4.221-18.035-1.151-10.752-6.142v-6.913l-11.519-8.447-1.536-10.754-12.674-6.527-7.296-7.682z"/><path fill="none" stroke="#0090D9" stroke-width="2.268" stroke-miterlimit="3.864" d="M420.927 800.856l-2.528-7.37-7.856 2.767-7.144.233-20.25-1-17.549 1.15 13.434-12.287-4.223-4.991-4.993-.767-12.672-8.067 8.834-1.535 16.899 2.688 24.574 11.519 12.29 6.147 7.906 2.393-6.753-21.212-16.897-10.755-4.992-2.303-14.203-13.82 2.3-4.61 8.063 3.84 12.288 8.832 23.809 14.979 5.376 11.517 13.439 12.289 3.072 1.92 6.912 3.072 6.144 3.073 9.601-2.692 17.279 6.526 8.064.382 4.224 5 4.608 8.063.384 4.609 6.125 6.139 12.293 1.156 1.152 3.072 5.758 2.305 5.376 4.606 15.744 2.695 4.229 6.516 3.839 1.919 2.304 5.374-6.148 7.298-13.053-2.3-9.599 2.687-19.2.385-3.84 4.221-18.035-1.151-10.752-6.142v-6.913l-11.519-8.447-1.536-10.754-12.674-6.527-7.296-7.682z"/></g></svg>