<?xml version="1.0" encoding="utf-8"?>
<!-- Generator: Adobe Illustrator 18.1.1, SVG Export Plug-In . SVG Version: 6.00 Build 0)  -->
<svg version="1.1" id="Layer_1" xmlns="http://www.w3.org/2000/svg" xmlns:xlink="http://www.w3.org/1999/xlink" x="0px" y="0px"
	 viewBox="0 0 96 96" enable-background="new 0 0 96 96" xml:space="preserve">
<g>
	<path fill="none" stroke="#F7D031" stroke-width="8" stroke-miterlimit="10" d="M22.6,49c-0.6-2.2-0.9-4.5-0.9-6.8
		c0-14.5,11.8-26.3,26.3-26.3c14.5,0,26.3,11.8,26.3,26.3c0,2.3-0.3,4.6-0.9,6.8"/>
	<g>
		<path fill="none" stroke="#8BC53F" stroke-width="4" stroke-linecap="round" stroke-linejoin="round" stroke-miterlimit="10" d="
			M21.4,49.6c-5.3,2.7-10.2,6.3-14.5,10.5"/>
		<path fill="none" stroke="#8BC53F" stroke-width="4" stroke-linecap="round" stroke-linejoin="round" stroke-miterlimit="10" d="
			M89.1,60.1c-4.3-4.2-9.2-7.7-14.5-10.5"/>
		<path fill="none" stroke="#8BC53F" stroke-width="4" stroke-linecap="round" stroke-linejoin="round" stroke-miterlimit="10" d="
			M29.6,48.9c-6.8,4.5-12.7,11.3-17.2,19.8"/>
		<path fill="none" stroke="#8BC53F" stroke-width="4" stroke-linecap="round" stroke-linejoin="round" stroke-miterlimit="10" d="
			M83.6,68.7c-4.5-8.5-10.4-15.4-17.2-19.8"/>
		<path fill="none" stroke="#8BC53F" stroke-width="4" stroke-linecap="round" stroke-linejoin="round" stroke-miterlimit="10" d="
			M44.2,48.2c-2.4,6.9-4.4,20.2-5.3,36.8"/>
		<path fill="none" stroke="#8BC53F" stroke-width="4" stroke-linecap="round" stroke-linejoin="round" stroke-miterlimit="10" d="
			M51.8,48.2c2.4,6.9,4.4,20.2,5.3,36.8"/>
		<path fill="none" stroke="#8BC53F" stroke-width="4" stroke-linecap="round" stroke-linejoin="round" stroke-miterlimit="10" d="
			M71.8,79.2C69,65.5,64.3,54.5,58.5,48.4"/>
		<path fill="none" stroke="#8BC53F" stroke-width="4" stroke-linecap="round" stroke-linejoin="round" stroke-miterlimit="10" d="
			M24.2,79.2c2.8-13.7,7.5-24.7,13.3-30.8"/>
		<path fill="none" stroke="#8BC53F" stroke-width="4" stroke-linecap="round" stroke-linejoin="round" stroke-miterlimit="10" d="
			M21.4,49.6C10.7,50.8,4.1,52.2,4,52.2"/>
		
			<line fill="none" stroke="#8BC53F" stroke-width="4" stroke-linecap="round" stroke-linejoin="round" stroke-miterlimit="10" x1="4" y1="52.2" x2="4" y2="52.3"/>
		<path fill="none" stroke="#8BC53F" stroke-width="4" stroke-linecap="round" stroke-linejoin="round" stroke-miterlimit="10" d="
			M66.4,48.9c2.9,0.2,5.6,0.5,8.1,0.7"/>
		<path fill="none" stroke="#8BC53F" stroke-width="4" stroke-linecap="round" stroke-linejoin="round" stroke-miterlimit="10" d="
			M37.5,48.4c2.2-0.1,4.4-0.2,6.8-0.2"/>
		
			<line fill="none" stroke="#8BC53F" stroke-width="4" stroke-linecap="round" stroke-linejoin="round" stroke-miterlimit="10" x1="92" y1="52.3" x2="92" y2="52.2"/>
		<path fill="none" stroke="#8BC53F" stroke-width="4" stroke-linecap="round" stroke-linejoin="round" stroke-miterlimit="10" d="
			M92,52.2c-0.1,0-6.7-1.5-17.4-2.6"/>
		<path fill="none" stroke="#8BC53F" stroke-width="4" stroke-linecap="round" stroke-linejoin="round" stroke-miterlimit="10" d="
			M51.8,48.2c-1.2,0-2.5,0-3.8,0c-1.3,0-2.5,0-3.8,0"/>
		<path fill="none" stroke="#8BC53F" stroke-width="4" stroke-linecap="round" stroke-linejoin="round" stroke-miterlimit="10" d="
			M58.5,48.4c2.8,0.1,5.4,0.3,7.9,0.5"/>
		<path fill="none" stroke="#8BC53F" stroke-width="4" stroke-linecap="round" stroke-linejoin="round" stroke-miterlimit="10" d="
			M29.6,48.9c-2.9,0.2-5.6,0.5-8.1,0.7"/>
		<path fill="none" stroke="#8BC53F" stroke-width="4" stroke-linecap="round" stroke-linejoin="round" stroke-miterlimit="10" d="
			M37.5,48.4c-2.8,0.1-5.4,0.3-7.9,0.5"/>
		<path fill="none" stroke="#8BC53F" stroke-width="4" stroke-linecap="round" stroke-linejoin="round" stroke-miterlimit="10" d="
			M51.8,48.2c2.3,0,4.6,0.1,6.8,0.2"/>
	</g>
</g>
</svg>
